<svg width="32" height="28" viewBox="0 0 32 28" fill="none" xmlns="http://www.w3.org/2000/svg">
<path d="M28.0398 17.5H11.754L12.1176 19.25H27.0297C27.8853 19.25 28.5195 20.0321 28.3299 20.8534L28.0234 22.181C29.0618 22.6772 29.7778 23.725 29.7778 24.9375C29.7778 26.6439 28.3601 28.0243 26.6209 27.9997C24.9641 27.9762 23.6014 26.6527 23.5567 25.0221C23.5323 24.1314 23.8948 23.3241 24.4902 22.7499H12.8431C13.4196 23.3059 13.7778 24.0803 13.7778 24.9375C13.7778 26.6773 12.304 28.0783 10.5183 27.9966C8.93278 27.9241 7.64328 26.6631 7.55994 25.1027C7.49561 23.8977 8.13972 22.8356 9.11833 22.2816L5.21572 3.5H1.33333C0.596944 3.5 0 2.91238 0 2.1875V1.3125C0 0.587617 0.596944 0 1.33333 0H7.02939C7.66278 0 8.20872 0.438648 8.33567 1.04945L8.84489 3.5H30.6661C31.5217 3.5 32.1559 4.28209 31.9663 5.10338L29.34 16.4784C29.2021 17.076 28.6624 17.5 28.0398 17.5ZM22.3905 10.5H20V7.21875C20 6.85634 19.7015 6.5625 19.3333 6.5625H18C17.6318 6.5625 17.3333 6.85634 17.3333 7.21875V10.5H14.9428C14.3489 10.5 14.0514 11.2069 14.4714 11.6203L18.1953 15.2859C18.4556 15.5422 18.8777 15.5422 19.1381 15.2859L22.8619 11.6203C23.2819 11.2069 22.9844 10.5 22.3905 10.5Z" fill="#1C1A2D"/>
</svg>
