<svg width="20" height="14" viewBox="0 0 20 14" fill="none" xmlns="http://www.w3.org/2000/svg">
<path d="M10 0L9.80006 0.0689296L1.81539 3.10764L0 3.78751L1.05717 4.17206V10.5209C0.675822 10.7726 0.418397 11.2319 0.418397 11.7688C0.418397 12.1537 0.552995 12.5228 0.792581 12.795C1.03217 13.0671 1.35712 13.22 1.69594 13.22C2.03477 13.22 2.35972 13.0671 2.59931 12.795C2.83889 12.5228 2.97349 12.1537 2.97349 11.7688C2.97349 11.2319 2.71606 10.7726 2.33472 10.5209V4.67271L3.61226 5.14796V8.86654C3.61226 9.46152 3.93165 9.95491 4.31108 10.2959C4.69051 10.6348 5.16193 10.8742 5.72788 11.089C6.86107 11.5171 8.35452 11.7688 10 11.7688C11.6455 11.7688 13.1389 11.5178 14.2721 11.0883C14.8381 10.8742 15.3095 10.6348 15.6889 10.2952C16.0683 9.95491 16.3877 9.46152 16.3877 8.86654V5.14796L18.1846 4.46737L20 3.78751L18.184 3.10692L10.1993 0.0689296L10 0ZM10 1.52008L15.9885 3.78751L10 6.05493L4.0115 3.78751L10 1.52008ZM4.88981 5.64716L9.8007 7.50609L10 7.57429L10.1999 7.50536L15.1102 5.64644V8.86654C15.1102 8.8738 15.1127 8.95796 14.9103 9.13863C14.7084 9.32003 14.3462 9.54858 13.8722 9.72853C12.9256 10.0862 11.5299 10.3177 10 10.3177C8.47014 10.3177 7.07442 10.087 6.12712 9.7278C5.65442 9.54858 5.2916 9.3193 5.08975 9.13863C4.88662 8.95724 4.88981 8.8738 4.88981 8.86654V5.64716Z" fill="#EAD2B7"/>
</svg>
