<svg width="30" height="23" viewBox="0 0 30 23" fill="none" xmlns="http://www.w3.org/2000/svg">
<path d="M7.88813 0L8.19271e-07 8.06342V5.35325L5.23688 0H7.88813ZM21.0131 0L18.2681 2.806C17.6708 2.45469 17.0227 2.2024 16.3481 2.0585L18.3619 0H21.0131ZM18.975 6.08158C18.5177 5.3322 17.866 4.72713 17.0924 4.33362C16.3189 3.94011 15.4537 3.77356 14.5931 3.8525C13.5754 3.94314 12.6144 4.37119 11.8566 5.0715C11.0987 5.77181 10.5854 6.70604 10.3948 7.73202C10.2042 8.758 10.3467 9.81955 10.8006 10.7551C11.2545 11.6907 11.995 12.4491 12.9094 12.9148C13.8238 13.3806 14.862 13.5282 15.866 13.3353C16.8701 13.1423 17.7849 12.6193 18.4714 11.8459C19.1579 11.0725 19.5785 10.0911 19.669 9.05085C19.7596 8.01064 19.5152 6.96867 18.9731 6.0835L18.975 6.08158ZM20.325 4.70158C20.7094 5.244 21.015 5.84583 21.225 6.49367L27.555 0.0249167C27.4332 0.00850406 27.3104 0.000181042 27.1875 0H24.9244L20.325 4.70158ZM10.3125 15.3333C9.56673 15.3338 8.85165 15.6369 8.32431 16.176C7.79697 16.715 7.5005 17.446 7.5 18.2083V23H22.5V18.2083C22.5005 17.8306 22.4281 17.4566 22.2869 17.1075C22.1458 16.7585 21.9386 16.4413 21.6773 16.1743C21.4161 15.9072 21.1058 15.6955 20.7644 15.5512C20.4229 15.4068 20.057 15.3328 19.6875 15.3333H10.3125ZM19.6875 13.4167C20.0944 13.4167 20.4881 13.4703 20.865 13.57L30 4.22817V2.875C30 2.47442 29.9194 2.09492 29.775 1.748L21.3375 10.3749C21.0322 11.5297 20.4301 12.58 19.5938 13.4167H19.6875ZM23.265 15.1129C23.6869 15.6208 24.0056 16.2188 24.1912 16.8762L30 10.9384V8.22825L23.265 15.1129ZM24.375 23V20.6866L30 14.9366V17.6467L24.7631 23H24.375ZM5.625 22.4384V19.7283L2.44688 22.977C2.56688 22.9923 2.69063 23 2.8125 23H5.07563L5.625 22.4384ZM8.57625 10.005C8.71875 10.7046 8.97 11.3658 9.3075 11.9677L0.225001 21.252C0.0762528 20.8957 -0.000288878 20.5124 8.19271e-07 20.125V18.7699L8.57625 10.0031V10.005ZM14.4506 0L8.19271e-07 14.7717V12.0616L11.7994 0H14.4506Z" fill="#EAD2B7"/>
</svg>
