<svg width="20" height="16" viewBox="0 0 20 16" fill="none" xmlns="http://www.w3.org/2000/svg">
<path d="M6.50003 11C6.42535 11 6.35066 11.0109 6.27941 11.0341C5.87441 11.1656 5.44847 11.25 5.00004 11.25C4.5516 11.25 4.12567 11.1656 3.72035 11.0341C3.6491 11.0109 3.57473 11 3.50004 11C1.56067 11 -0.010262 12.5775 5.04836e-05 14.5194C0.00442547 15.34 0.679111 16 1.50005 16H8.50003C9.32096 16 9.99565 15.34 10 14.5194C10.0103 12.5775 8.4394 11 6.50003 11ZM5.00004 10C6.65691 10 8.00003 8.65687 8.00003 7C8.00003 5.34312 6.65691 4 5.00004 4C3.34317 4 2.00005 5.34312 2.00005 7C2.00005 8.65687 3.34317 10 5.00004 10ZM18.5 0H6.50003C5.67285 0 5.00004 0.695312 5.00004 1.54969V3C5.73191 3 6.40941 3.21187 7.00003 3.55625V2H18V11H16V9H12V11H9.61753C10.2144 11.5216 10.6525 12.2103 10.8578 13H18.5C19.3272 13 20 12.3047 20 11.4503V1.54969C20 0.695312 19.3272 0 18.5 0Z" fill="#EAD2B7"/>
</svg>
