<svg width="42" height="38" viewBox="0 0 42 38" fill="none" xmlns="http://www.w3.org/2000/svg">
<path d="M26.8801 3.40495L40.9522 26.9672C42.9745 30.3514 41.9812 34.8037 38.7325 36.9107C37.6422 37.6204 36.3712 37.9987 35.0722 38H6.92582C3.10171 38 0 34.77 0 30.7821C0 29.433 0.363301 28.1136 1.0458 26.9672L15.12 3.40495C17.1402 0.0208123 21.4117 -1.01575 24.6604 1.09115C25.5592 1.67383 26.3194 2.4655 26.8801 3.40495ZM22.2181 5.17619C21.961 5.00995 21.673 4.89783 21.3716 4.84659C21.0702 4.79536 20.7616 4.80607 20.4645 4.87809C20.1673 4.95011 19.8878 5.08194 19.6427 5.26562C19.3976 5.44929 19.1921 5.681 19.0387 5.94675L4.96651 29.5133C4.73793 29.8973 4.61743 30.3366 4.61791 30.7842C4.61791 32.1142 5.65112 33.1908 6.92792 33.1908H35.0701C35.5027 33.1908 35.9248 33.0642 36.2902 32.8277C36.8145 32.4775 37.1843 31.9375 37.3223 31.32C37.4604 30.7026 37.3563 30.0554 37.0315 29.5133L22.9594 5.94675C22.7748 5.63646 22.5219 5.37285 22.2202 5.17619H22.2181ZM21.0001 29.5555C20.4431 29.5555 19.909 29.3331 19.5151 28.9372C19.1213 28.5412 18.9001 28.0043 18.9001 27.4444C18.9001 26.8845 19.1213 26.3475 19.5151 25.9516C19.909 25.5557 20.4431 25.3332 21.0001 25.3332C21.557 25.3332 22.0912 25.5557 22.485 25.9516C22.8788 26.3475 23.1001 26.8845 23.1001 27.4444C23.1001 28.0043 22.8788 28.5412 22.485 28.9372C22.0912 29.3331 21.557 29.5555 21.0001 29.5555ZM21.0001 10.5553C21.557 10.5553 22.0912 10.7778 22.485 11.1737C22.8788 11.5696 23.1001 12.1066 23.1001 12.6665V21.111C23.1001 21.6709 22.8788 22.2079 22.485 22.6038C22.0912 22.9997 21.557 23.2221 21.0001 23.2221C20.4431 23.2221 19.909 22.9997 19.5151 22.6038C19.1213 22.2079 18.9001 21.6709 18.9001 21.111V12.6665C18.9001 12.1066 19.1213 11.5696 19.5151 11.1737C19.909 10.7778 20.4431 10.5553 21.0001 10.5553Z" fill="#1C1A2D"/>
</svg>
