<svg width="20" height="23" viewBox="0 0 20 23" fill="none" xmlns="http://www.w3.org/2000/svg">
<path d="M10.8748 21L0 11.21V13.21C0 13.74 0.233268 14.25 0.655373 14.62L9.30853 22.41C10.175 23.19 11.5857 23.19 12.4521 22.41L19.3502 16.2C20.2166 15.42 20.2166 14.15 19.3502 13.37L10.8748 21Z" fill="#EAD2B7"/>
<path d="M9.30853 17.41C9.74174 17.8 10.3082 18 10.8748 18C11.4413 18 12.0078 17.8 12.441 17.41L19.3391 11.2C20.2055 10.42 20.2055 9.15 19.3391 8.37L10.6859 0.58C10.2749 0.21 9.70842 0 9.11969 0H2.22161C0.999722 0 0 0.9 0 2V8.21C0 8.74 0.233268 9.25 0.655373 9.62L9.30853 17.41ZM2.22161 2H9.11969L17.7728 9.79L10.8748 16L2.22161 8.21V2Z" fill="#EAD2B7"/>
<path d="M4.72053 5.5C5.48738 5.5 6.10904 4.94036 6.10904 4.25C6.10904 3.55964 5.48738 3 4.72053 3C3.95369 3 3.33203 3.55964 3.33203 4.25C3.33203 4.94036 3.95369 5.5 4.72053 5.5Z" fill="#EAD2B7"/>
</svg>
