<svg width="16" height="18" viewBox="0 0 16 18" fill="none" xmlns="http://www.w3.org/2000/svg">
<path d="M11.6548 17.0021C11.8672 17.0034 12.0778 16.9597 12.2742 16.8736C12.4706 16.7875 12.6489 16.6607 12.7987 16.5006L14.9664 14.197C15.1154 14.0378 15.199 13.8223 15.199 13.5978C15.199 13.3732 15.1154 13.1578 14.9664 12.9985L11.7668 9.59846C11.6169 9.44014 11.4142 9.35128 11.2028 9.35128C10.9915 9.35128 10.7888 9.44014 10.6389 9.59846L9.35903 10.95C8.47293 10.6989 7.65226 10.2367 6.95929 9.59846C6.36025 8.86091 5.9255 7.98926 5.68742 7.04841L6.95929 5.68839C7.10827 5.52913 7.1919 5.31369 7.1919 5.08913C7.1919 4.86456 7.10827 4.64913 6.95929 4.48986L3.75963 1.0898C3.60975 0.931485 3.40701 0.842622 3.19569 0.842622C2.98436 0.842622 2.78162 0.931485 2.63175 1.0898L0.471976 3.40184C0.321298 3.561 0.201961 3.75046 0.120931 3.95916C0.0399005 4.16785 -0.00120048 4.39161 2.66905e-05 4.61737C0.0725973 7.88338 1.30075 11.0004 3.43966 13.347C5.648 15.6199 8.58128 16.925 11.6548 17.0021ZM3.19969 2.90033L5.27147 5.10188L4.23958 6.1984C4.14184 6.29568 4.06866 6.41748 4.02673 6.55262C3.9848 6.68777 3.97547 6.83194 3.9996 6.97191C4.29858 8.39175 4.93159 9.70781 5.83941 10.797C6.86358 11.7629 8.10239 12.4357 9.43902 12.752C9.56875 12.7808 9.70318 12.775 9.83024 12.7349C9.9573 12.6948 10.073 12.6219 10.1669 12.5225L11.1988 11.4005L13.2706 13.602L11.6708 15.3021C9.01805 15.2295 6.48694 14.1045 4.57554 12.1485C2.73007 10.1166 1.66834 7.42336 1.59986 4.60037L3.19969 2.90033ZM14.3985 7.65192H15.9983C16.0191 6.64125 15.847 5.63659 15.4926 4.69846C15.1381 3.76034 14.6086 2.90819 13.9359 2.19337C13.2632 1.47855 12.4613 0.915858 11.5785 0.539205C10.6956 0.162553 9.75019 -0.0202616 8.79909 0.00178047V1.70181C9.54134 1.67453 10.2809 1.80977 10.9719 2.09914C11.6629 2.3885 12.2904 2.82581 12.8156 3.38386C13.3407 3.94191 13.7523 4.60879 14.0246 5.34303C14.2969 6.07727 14.4242 6.86319 14.3985 7.65192Z" fill="#EAD2B7"/>
<path d="M8.79883 5.1018C10.4788 5.1018 11.1988 5.86681 11.1988 7.65184H12.7988C12.7988 4.91479 11.3748 3.40176 8.79883 3.40176V5.1018Z" fill="#EAD2B7"/>
</svg>
