<svg width="18" height="25" viewBox="0 0 18 25" fill="none" xmlns="http://www.w3.org/2000/svg">
<path d="M9 13.65C10.6569 13.65 12 12.1054 12 10.2C12 8.29462 10.6569 6.75 9 6.75C7.34315 6.75 6 8.29462 6 10.2C6 12.1054 7.34315 13.65 9 13.65Z" stroke="#EAD2B7" stroke-width="2" stroke-linecap="round" stroke-linejoin="round"/>
<path d="M9 1C6.87827 1 4.84344 1.96928 3.34315 3.69462C1.84285 5.41995 1 7.76001 1 10.2C1 12.3758 1.402 13.7995 2.5 15.375L9 24L15.5 15.375C16.598 13.7995 17 12.3758 17 10.2C17 7.76001 16.1571 5.41995 14.6569 3.69462C13.1566 1.96928 11.1217 1 9 1V1Z" stroke="#EAD2B7" stroke-width="2" stroke-linecap="round" stroke-linejoin="round"/>
</svg>
