<svg width="18" height="22" viewBox="0 0 18 22" fill="none" xmlns="http://www.w3.org/2000/svg">
<path d="M8.9995 11C11.5287 11 13.5791 8.76142 13.5791 6C13.5791 3.23858 11.5287 1 8.9995 1C6.47027 1 4.41992 3.23858 4.41992 6C4.41992 8.76142 6.47027 11 8.9995 11Z" stroke="#EAD2B7" stroke-width="2"/>
<path d="M13.5796 13H13.902C14.5716 13.0002 15.2181 13.2674 15.72 13.7513C16.2219 14.2352 16.5447 14.9026 16.6277 15.628L16.9859 18.752C17.0181 19.0334 16.9951 19.3191 16.9184 19.5901C16.8418 19.8611 16.7132 20.1112 16.5413 20.3238C16.3694 20.5364 16.158 20.7066 15.9212 20.8232C15.6844 20.9398 15.4275 21.0001 15.1678 21H2.83223C2.57246 21.0001 2.31565 20.9398 2.07884 20.8232C1.84203 20.7066 1.63064 20.5364 1.4587 20.3238C1.28676 20.1112 1.1582 19.8611 1.08155 19.5901C1.00491 19.3191 0.981926 19.0334 1.01414 18.752L1.37134 15.628C1.45441 14.9022 1.77748 14.2346 2.27978 13.7506C2.78208 13.2667 3.42902 12.9997 4.09894 13H4.42043" stroke="#EAD2B7" stroke-width="2" stroke-linecap="round" stroke-linejoin="round"/>
</svg>
