<svg width="16" height="22" viewBox="0 0 16 22" fill="none" xmlns="http://www.w3.org/2000/svg">
<path d="M14.884 0H11.536C11.24 0 10.9561 0.119889 10.7468 0.333292C10.5375 0.546696 10.42 0.836133 10.42 1.13793C10.42 1.43973 10.5375 1.72917 10.7468 1.94257C10.9561 2.15597 11.24 2.27586 11.536 2.27586H12.187L10.792 3.70776C9.62367 2.77676 8.18271 2.27254 6.69994 2.27586C5.0203 2.27487 3.40164 2.91756 2.16496 4.07647C0.928282 5.23538 0.163921 6.82587 0.0234658 8.53251C-0.116989 10.2391 0.376719 11.9373 1.40668 13.2901C2.43664 14.643 3.92762 15.5518 5.58394 15.8362V17.069H3.72392C3.42794 17.069 3.14408 17.1889 2.93479 17.4023C2.7255 17.6157 2.60792 17.9051 2.60792 18.2069C2.60792 18.5087 2.7255 18.7981 2.93479 19.0115C3.14408 19.2249 3.42794 19.3448 3.72392 19.3448H5.58394V20.8621C5.58394 21.1639 5.70151 21.4533 5.91081 21.6667C6.1201 21.8801 6.40396 22 6.69994 22C6.99593 22 7.27979 21.8801 7.48908 21.6667C7.69837 21.4533 7.81595 21.1639 7.81595 20.8621V19.3448H9.67596C9.97194 19.3448 10.2558 19.2249 10.4651 19.0115C10.6744 18.7981 10.792 18.5087 10.792 18.2069C10.792 17.9051 10.6744 17.6157 10.4651 17.4023C10.2558 17.1889 9.97194 17.069 9.67596 17.069H7.81595V15.8362C8.91122 15.6471 9.94314 15.1831 10.8187 14.486C11.6943 13.789 12.3861 12.8807 12.8317 11.8432C13.2773 10.8056 13.4627 9.67129 13.3713 8.54245C13.2798 7.4136 12.9144 6.32569 12.3079 5.37672L13.768 3.88793V4.55172C13.768 4.85352 13.8856 5.14296 14.0949 5.35636C14.3041 5.56977 14.588 5.68965 14.884 5.68965C15.18 5.68965 15.4638 5.56977 15.6731 5.35636C15.8824 5.14296 16 4.85352 16 4.55172V1.13793C16 0.836133 15.8824 0.546696 15.6731 0.333292C15.4638 0.119889 15.18 0 14.884 0ZM6.69994 13.6552C5.81704 13.6552 4.95397 13.3882 4.21986 12.8881C3.48576 12.3879 2.91359 11.677 2.57572 10.8453C2.23785 10.0136 2.14945 9.0984 2.32169 8.21545C2.49394 7.3325 2.91909 6.52146 3.5434 5.88489C4.1677 5.24832 4.96312 4.81481 5.82905 4.63918C6.69499 4.46355 7.59256 4.55369 8.40825 4.8982C9.22395 5.24271 9.92113 5.82612 10.4116 6.57465C10.9022 7.32317 11.164 8.2032 11.164 9.10345C11.164 10.3106 10.6937 11.4684 9.85649 12.322C9.01932 13.1756 7.88388 13.6552 6.69994 13.6552Z" fill="#EAD2B7"/>
</svg>
