<svg width="27" height="23" viewBox="0 0 27 23" fill="none" xmlns="http://www.w3.org/2000/svg">
<path d="M25.38 0H1.62C1.19035 0 0.778296 0.173086 0.474487 0.481182C0.170678 0.789277 0 1.20714 0 1.64286V21.3571C0 21.7929 0.170678 22.2107 0.474487 22.5188C0.778296 22.8269 1.19035 23 1.62 23H3.429C3.53072 22.9979 3.6299 22.9674 3.71564 22.9118C3.80137 22.8563 3.87035 22.7778 3.915 22.6851C4.48379 21.4666 5.38206 20.4369 6.50531 19.7159C7.62856 18.9948 8.93062 18.612 10.26 18.612C11.5894 18.612 12.8914 18.9948 14.0147 19.7159C15.1379 20.4369 16.0362 21.4666 16.605 22.6851C16.6496 22.7778 16.7186 22.8563 16.8044 22.9118C16.8901 22.9674 16.9893 22.9979 17.091 23H25.38C25.8097 23 26.2217 22.8269 26.5255 22.5188C26.8293 22.2107 27 21.7929 27 21.3571V1.64286C27 1.20714 26.8293 0.789277 26.5255 0.481182C26.2217 0.173086 25.8097 0 25.38 0ZM25.92 21.3571C25.92 21.5024 25.8631 21.6417 25.7618 21.7444C25.6606 21.8471 25.5232 21.9048 25.38 21.9048H17.4285C16.4356 20.0109 14.7559 18.5824 12.744 17.9208C13.6589 17.3691 14.37 16.528 14.7678 15.5267C15.1657 14.5254 15.2283 13.4193 14.9462 12.3784C14.6641 11.3375 14.0528 10.4193 13.2062 9.76492C12.3595 9.11051 11.3245 8.75608 10.26 8.75608C9.19551 8.75608 8.16045 9.11051 7.31385 9.76492C6.46725 10.4193 5.85592 11.3375 5.5738 12.3784C5.29167 13.4193 5.35434 14.5254 5.75219 15.5267C6.15004 16.528 6.86105 17.3691 7.776 17.9208C5.7641 18.5824 4.0844 20.0109 3.0915 21.9048H1.62C1.47786 21.9013 1.34249 21.8425 1.24196 21.7405C1.14142 21.6386 1.08343 21.5013 1.08 21.3571V1.64286C1.08 1.49762 1.13689 1.35833 1.23816 1.25563C1.33943 1.15293 1.47678 1.09524 1.62 1.09524H25.38C25.5232 1.09524 25.6606 1.15293 25.7618 1.25563C25.8631 1.35833 25.92 1.49762 25.92 1.64286V21.3571ZM10.26 17.5238C9.51239 17.5238 8.78156 17.299 8.15994 16.8778C7.53833 16.4566 7.05383 15.8579 6.76774 15.1574C6.48164 14.457 6.40678 13.6862 6.55263 12.9426C6.69848 12.199 7.05849 11.516 7.58714 10.9799C8.11578 10.4438 8.78931 10.0787 9.52256 9.9308C10.2558 9.78289 11.0158 9.8588 11.7065 10.1489C12.3972 10.4391 12.9876 10.9304 13.403 11.5608C13.8183 12.1912 14.04 12.9323 14.04 13.6905C14.0364 14.706 13.6371 15.679 12.9289 16.3971C12.2208 17.1152 11.2614 17.5202 10.26 17.5238ZM22.68 4.92857V18.0714C22.68 18.2167 22.6231 18.356 22.5218 18.4587C22.4206 18.5614 22.2832 18.619 22.14 18.619H19.98C19.8368 18.619 19.6994 18.5614 19.5982 18.4587C19.4969 18.356 19.44 18.2167 19.44 18.0714C19.44 17.9262 19.4969 17.7869 19.5982 17.6842C19.6994 17.5815 19.8368 17.5238 19.98 17.5238H21.6V5.47619H5.4V7.11905C5.4 7.26429 5.34311 7.40357 5.24184 7.50627C5.14057 7.60897 5.00322 7.66667 4.86 7.66667C4.71678 7.66667 4.57943 7.60897 4.47816 7.50627C4.37689 7.40357 4.32 7.26429 4.32 7.11905V4.92857C4.32 4.78333 4.37689 4.64404 4.47816 4.54135C4.57943 4.43865 4.71678 4.38095 4.86 4.38095H22.14C22.2832 4.38095 22.4206 4.43865 22.5218 4.54135C22.6231 4.64404 22.68 4.78333 22.68 4.92857Z" fill="#EAD2B7"/>
</svg>
