<svg width="52" height="52" viewBox="0 0 52 52" fill="none" xmlns="http://www.w3.org/2000/svg">
<path fill-rule="evenodd" clip-rule="evenodd" d="M42.1887 0H9.81132C4.39268 0 0 4.39268 0 9.81132V42.1887C0 47.6073 4.39268 52 9.81132 52H42.1887C47.6073 52 52 47.6073 52 42.1887V9.81132C52 4.39268 47.6073 0 42.1887 0ZM38 16.0087C37.887 15.9971 37.773 15.9971 37.66 16.0087H14.4395C14.2907 16.011 14.1429 16.0333 14 16.075L25.9834 28L38 16.0087ZM27.0725 29.1849L38.9025 17C38.9606 17.1646 38.9935 17.3375 39 17.5126V34.3193C39 34.7651 38.8288 35.1926 38.524 35.5077C38.2193 35.8229 37.806 36 37.375 36H14.625C14.194 36 13.7807 35.8229 13.476 35.5077C13.1712 35.1926 13 34.7651 13 34.3193V17.5126C13.0017 17.3706 13.0208 17.2294 13.0569 17.0924L24.7812 29.1849C25.0857 29.4979 25.4976 29.6736 25.9269 29.6736C26.3562 29.6736 26.768 29.4979 27.0725 29.1849ZM14.6088 34.3193H15.7381L21.6612 28.2437L20.5156 27.0588L14.6088 33.1176V34.3193ZM36.2212 34.3193H37.3587L37.3506 33.1176L31.4437 27.0588L30.2981 28.2437L36.2212 34.3193Z" fill="#EAD2B7"/>
</svg>
