<svg width="45" height="45" viewBox="0 0 45 45" fill="none" xmlns="http://www.w3.org/2000/svg">
<path d="M22.494 14.9968C18.3625 14.9968 14.9909 18.3685 14.9909 22.5C14.9909 26.6315 18.3625 30.0032 22.494 30.0032C26.6254 30.0032 29.997 26.6315 29.997 22.5C29.997 18.3685 26.6254 14.9968 22.494 14.9968ZM44.9975 22.5C44.9975 19.3929 45.0256 16.3139 44.8511 13.2125C44.6767 9.61004 43.8549 6.41288 41.2206 3.7786C38.5808 1.13869 35.3893 0.322516 31.7869 0.148023C28.6799 -0.0264698 25.601 0.00167425 22.4996 0.00167425C19.3925 0.00167425 16.3136 -0.0264698 13.2122 0.148023C9.60986 0.322516 6.41276 1.14432 3.77853 3.7786C1.13867 6.41851 0.32251 9.61004 0.14802 13.2125C-0.0264693 16.3196 0.00167422 19.3985 0.00167422 22.5C0.00167422 25.6015 -0.0264693 28.6861 0.14802 31.7875C0.32251 35.39 1.1443 38.5871 3.77853 41.2214C6.41839 43.8613 9.60986 44.6775 13.2122 44.852C16.3193 45.0265 19.3982 44.9983 22.4996 44.9983C25.6066 44.9983 28.6855 45.0265 31.7869 44.852C35.3893 44.6775 38.5864 43.8557 41.2206 41.2214C43.8605 38.5815 44.6767 35.39 44.8511 31.7875C45.0313 28.6861 44.9975 25.6071 44.9975 22.5ZM22.494 34.0447C16.1054 34.0447 10.9495 28.8887 10.9495 22.5C10.9495 16.1113 16.1054 10.9553 22.494 10.9553C28.8825 10.9553 34.0384 16.1113 34.0384 22.5C34.0384 28.8887 28.8825 34.0447 22.494 34.0447ZM34.5112 13.1787C33.0196 13.1787 31.8151 11.9741 31.8151 10.4825C31.8151 8.99087 33.0196 7.78631 34.5112 7.78631C36.0028 7.78631 37.2074 8.99087 37.2074 10.4825C37.2078 10.8367 37.1384 11.1875 37.003 11.5148C36.8677 11.8421 36.6691 12.1395 36.4187 12.39C36.1682 12.6404 35.8708 12.839 35.5435 12.9744C35.2162 13.1097 34.8654 13.1791 34.5112 13.1787Z" fill="#EAD2B7"/>
</svg>
