<svg width="52" height="52" viewBox="0 0 52 52" fill="none" xmlns="http://www.w3.org/2000/svg">
<path fill-rule="evenodd" clip-rule="evenodd" d="M10 0C4.47715 0 0 4.47715 0 10V42C0 47.5228 4.47715 52 10 52H42C47.5228 52 52 47.5228 52 42V10C52 4.47715 47.5228 0 42 0H10ZM21.5965 18.0953C23.3794 19.1057 24.7368 20.7321 25.4166 22.6722H37.182C38.7319 22.6722 40 23.9466 40 25.5042C40 27.0618 38.7319 28.3361 37.182 28.3361V31.1681C37.182 32.7256 35.9138 34 34.3639 34C32.814 34 31.5459 32.7256 31.5459 31.1681V28.3361H25.4166C24.8362 29.9921 23.7587 31.4263 22.3327 32.4408C20.9068 33.4553 19.2027 34.0001 17.4556 34C16.19 33.999 14.9408 33.7127 13.7999 33.1622C12.659 32.6118 11.6555 31.8112 10.8632 30.8194C10.071 29.8276 9.5102 28.6698 9.22213 27.4314C8.93407 26.193 8.92608 24.9054 9.19875 23.6634C9.87508 20.4209 12.4959 17.8296 15.7225 17.1783C17.7264 16.7591 19.8136 17.0849 21.5965 18.0953ZM14.6376 25.5042C14.6376 27.0618 15.9057 28.3361 17.4556 28.3361C19.0056 28.3361 20.2737 27.0618 20.2737 25.5042C20.2737 23.9466 19.0056 22.6722 17.4556 22.6722C15.9057 22.6722 14.6376 23.9466 14.6376 25.5042Z" fill="#EAD2B7"/>
</svg>
