<svg width="52" height="52" viewBox="0 0 52 52" fill="none" xmlns="http://www.w3.org/2000/svg">
<path fill-rule="evenodd" clip-rule="evenodd" d="M9.81132 0H42.1887C47.6073 0 52 4.39268 52 9.81132V42.1887C52 47.6073 47.6073 52 42.1887 52H9.81132C4.39268 52 0 47.6073 0 42.1887V9.81132C0 4.39268 4.39268 0 9.81132 0ZM15 34.9104C15 36.8113 16.9009 36.8113 16.9009 36.8113H35.9104C35.9104 36.8113 37.8113 36.8113 37.8113 34.9104C37.8113 33.0094 35.9104 27.3066 26.4057 27.3066C16.9009 27.3066 15 33.0094 15 34.9104ZM30.4382 23.7354C29.3687 24.8048 27.9182 25.4057 26.4057 25.4057C24.8931 25.4057 23.4426 24.8048 22.3731 23.7354C21.3037 22.6658 20.7028 21.2153 20.7028 19.7028C20.7028 18.1903 21.3037 16.7398 22.3731 15.6703C23.4426 14.6008 24.8931 14 26.4057 14C27.9182 14 29.3687 14.6008 30.4382 15.6703C31.5076 16.7398 32.1085 18.1903 32.1085 19.7028C32.1085 21.2153 31.5076 22.6658 30.4382 23.7354Z" fill="#EAD2B7"/>
</svg>
