<svg width="500" height="373" viewBox="0 0 500 373" fill="none" xmlns="http://www.w3.org/2000/svg">
<path d="M500 327.4H0V327.65H500V327.4Z" fill="#EBEBEB"/>
<path d="M449.9 343.49H416.78V343.74H449.9V343.49Z" fill="#EBEBEB"/>
<path d="M331.22 346.21H322.53V346.46H331.22V346.21Z" fill="#EBEBEB"/>
<path d="M415.78 334.21H396.59V334.46H415.78V334.21Z" fill="#EBEBEB"/>
<path d="M95.65 335.89H52.46V336.14H95.65V335.89Z" fill="#EBEBEB"/>
<path d="M110.89 335.89H104.56V336.14H110.89V335.89Z" fill="#EBEBEB"/>
<path d="M225.15 340.11H131.47V340.36H225.15V340.11Z" fill="#EBEBEB"/>
<path d="M237 282.8H43.91C42.3973 282.797 40.9475 282.195 39.8788 281.124C38.8102 280.053 38.21 278.603 38.21 277.09V5.66C38.2231 4.15602 38.8292 2.71798 39.8964 1.65822C40.9637 0.598458 42.4059 0.00257639 43.91 0H237C238.514 0 239.967 0.601588 241.038 1.67242C242.108 2.74325 242.71 4.19561 242.71 5.71V277.09C242.71 278.604 242.108 280.057 241.038 281.128C239.967 282.198 238.514 282.8 237 282.8ZM43.91 0.200001C42.4636 0.20265 41.0774 0.779065 40.0556 1.80273C39.0338 2.82639 38.46 4.21365 38.46 5.66V277.09C38.46 278.536 39.0338 279.924 40.0556 280.947C41.0774 281.971 42.4636 282.547 43.91 282.55H237C238.447 282.547 239.834 281.971 240.858 280.948C241.881 279.924 242.457 278.537 242.46 277.09V5.66C242.457 4.21273 241.881 2.82549 240.858 1.80212C239.834 0.77874 238.447 0.202644 237 0.200001H43.91Z" fill="#EBEBEB"/>
<path d="M453.31 282.8H260.21C258.696 282.797 257.246 282.195 256.175 281.125C255.105 280.054 254.503 278.604 254.5 277.09V5.66C254.516 4.15511 255.124 2.71708 256.193 1.65759C257.262 0.598109 258.705 0.00254829 260.21 0H453.31C454.812 0.0052045 456.252 0.602249 457.317 1.66173C458.382 2.72121 458.987 4.15775 459 5.66V277.09C459 278.601 458.401 280.05 457.335 281.121C456.268 282.191 454.821 282.795 453.31 282.8ZM260.21 0.200001C258.763 0.202644 257.375 0.77874 256.352 1.80212C255.329 2.82549 254.753 4.21273 254.75 5.66V277.09C254.753 278.537 255.329 279.924 256.352 280.948C257.375 281.971 258.763 282.547 260.21 282.55H453.31C454.757 282.547 456.145 281.971 457.168 280.948C458.191 279.924 458.767 278.537 458.77 277.09V5.66C458.767 4.21273 458.191 2.82549 457.168 1.80212C456.145 0.77874 454.757 0.202644 453.31 0.200001H260.21Z" fill="#EBEBEB"/>
<path d="M242.34 118.88H100.36V327.05H242.34V118.88Z" fill="#F0F0F0"/>
<path d="M237.32 125.43H105.37V163.88H237.32V125.43Z" fill="#E0E0E0"/>
<path d="M112.87 131.65H105.37V163.87H112.87V131.65Z" fill="#EBEBEB"/>
<path d="M149.12 131.65H141.62V163.87H149.12V131.65Z" fill="#EBEBEB"/>
<path d="M190.262 130.841L182.871 132.115L188.344 163.867L195.735 162.593L190.262 130.841Z" fill="#EBEBEB"/>
<path d="M122.16 135.9H114.66V163.88H122.16V135.9Z" fill="#EBEBEB"/>
<path d="M139.39 135.9H131.89V163.88H139.39V135.9Z" fill="#EBEBEB"/>
<path d="M182.88 135.9H175.38V163.88H182.88V135.9Z" fill="#EBEBEB"/>
<path d="M158.971 134.929L151.65 136.556L157.72 163.87L165.042 162.243L158.971 134.929Z" fill="#EBEBEB"/>
<path d="M128.64 130.05H124.89V163.87H128.64V130.05Z" fill="#EBEBEB"/>
<path d="M173.22 130.05H169.47V163.87H173.22V130.05Z" fill="#EBEBEB"/>
<path d="M105.38 208.42L237.33 208.42V169.97H105.38V208.42Z" fill="#E0E0E0"/>
<path d="M229.82 208.41H237.32V176.19H229.82V208.41Z" fill="#EBEBEB"/>
<path d="M193.58 208.41H201.08V176.19H193.58V208.41Z" fill="#EBEBEB"/>
<path d="M146.967 207.13L154.358 208.404L159.831 176.652L152.44 175.378L146.967 207.13Z" fill="#EBEBEB"/>
<path d="M220.53 208.42H228.03V180.44H220.53V208.42Z" fill="#EBEBEB"/>
<path d="M203.31 208.42H210.81V180.44H203.31V208.42Z" fill="#EBEBEB"/>
<path d="M159.82 208.42H167.32V180.44H159.82V208.42Z" fill="#EBEBEB"/>
<path d="M177.683 206.785L185.004 208.412L191.074 181.099L183.753 179.472L177.683 206.785Z" fill="#EBEBEB"/>
<path d="M214.05 208.41H217.8V174.59H214.05V208.41Z" fill="#EBEBEB"/>
<path d="M169.48 208.41H173.23V174.59H169.48V208.41Z" fill="#EBEBEB"/>
<path d="M112.87 176.19H105.37V208.41H112.87V176.19Z" fill="#EBEBEB"/>
<path d="M122.16 180.43H114.66V208.41H122.16V180.43Z" fill="#EBEBEB"/>
<path d="M139.39 180.43H131.89V208.41H139.39V180.43Z" fill="#EBEBEB"/>
<path d="M128.64 174.59H124.89V208.41H128.64V174.59Z" fill="#EBEBEB"/>
<path d="M237.32 214.5H105.37V252.95H237.32V214.5Z" fill="#E0E0E0"/>
<path d="M188.61 220.72H181.11V252.94H188.61V220.72Z" fill="#EBEBEB"/>
<path d="M229.758 219.908L222.367 221.182L227.84 252.934L235.231 251.66L229.758 219.908Z" fill="#EBEBEB"/>
<path d="M161.65 224.97H154.15V252.95H161.65V224.97Z" fill="#EBEBEB"/>
<path d="M178.88 224.97H171.38V252.95H178.88V224.97Z" fill="#EBEBEB"/>
<path d="M222.37 224.97H214.87V252.95H222.37V224.97Z" fill="#EBEBEB"/>
<path d="M198.464 224L191.143 225.627L197.213 252.941L204.535 251.314L198.464 224Z" fill="#EBEBEB"/>
<path d="M168.13 219.12H164.38V252.94H168.13V219.12Z" fill="#EBEBEB"/>
<path d="M212.71 219.12H208.96V252.94H212.71V219.12Z" fill="#EBEBEB"/>
<path d="M143.521 219.916L136.13 221.19L141.603 252.942L148.994 251.668L143.521 219.916Z" fill="#EBEBEB"/>
<path d="M136.13 224.97H128.63V252.95H136.13V224.97Z" fill="#EBEBEB"/>
<path d="M112.228 224L104.907 225.627L110.977 252.941L118.299 251.314L112.228 224Z" fill="#EBEBEB"/>
<path d="M126.48 219.12H122.73V252.94H126.48V219.12Z" fill="#EBEBEB"/>
<path d="M75.8601 327.59H100.36L100.36 118.88H75.8601L75.8601 327.59Z" fill="#E0E0E0"/>
<path d="M325.44 322.14H304.63L315.57 233C315.832 231.138 316.747 229.429 318.152 228.178C319.557 226.927 321.36 226.216 323.24 226.17H414L400.69 322.1L325.44 322.14Z" fill="#F5F5F5"/>
<path d="M391.44 322.14H412.25L423.2 233C423.334 232.143 423.277 231.267 423.035 230.435C422.793 229.602 422.371 228.833 421.798 228.181C421.226 227.529 420.517 227.012 419.723 226.664C418.928 226.317 418.067 226.148 417.2 226.17H410.05C408.173 226.227 406.376 226.943 404.974 228.192C403.572 229.44 402.654 231.142 402.38 233L391.44 322.14Z" fill="#F0F0F0"/>
<path d="M383.78 322L387.55 278.9C387.629 277.965 388.027 277.086 388.677 276.409C389.327 275.732 390.189 275.298 391.12 275.18L392.67 274.98C393.921 274.823 395.08 274.241 395.953 273.33C396.825 272.42 397.357 271.237 397.46 269.98L398.15 262.12C398.218 261.358 398.127 260.59 397.882 259.865C397.637 259.141 397.243 258.475 396.727 257.91C396.21 257.346 395.582 256.895 394.882 256.587C394.182 256.279 393.425 256.12 392.66 256.12H427.44C428.205 256.12 428.962 256.279 429.662 256.587C430.362 256.895 430.99 257.346 431.507 257.91C432.023 258.475 432.417 259.141 432.662 259.865C432.907 260.59 432.998 261.358 432.93 262.12L432.24 269.98C432.137 271.237 431.605 272.42 430.733 273.33C429.86 274.241 428.701 274.823 427.45 274.98L425.9 275.18C424.97 275.3 424.108 275.734 423.459 276.411C422.81 277.087 422.411 277.966 422.33 278.9L418.56 322C418.425 323.515 417.729 324.924 416.607 325.951C415.486 326.978 414.021 327.548 412.5 327.55H377.72C379.241 327.548 380.706 326.978 381.827 325.951C382.949 324.924 383.645 323.515 383.78 322Z" fill="#E6E6E6"/>
<path d="M288.06 268.15C287.784 264.878 286.29 261.829 283.873 259.607C281.456 257.385 278.293 256.151 275.01 256.15H305.29C308.565 256.163 311.716 257.403 314.122 259.624C316.528 261.845 318.015 264.887 318.29 268.15L321.29 302.31H291.05L288.06 268.15Z" fill="#E6E6E6"/>
<path d="M261.56 256.19H275C278.283 256.191 281.446 257.425 283.863 259.647C286.28 261.869 287.774 264.918 288.05 268.19L291.05 302.35H363.17L366.17 268.19C366.443 264.926 367.929 261.883 370.336 259.661C372.743 257.44 375.895 256.201 379.17 256.19H392.62C393.385 256.19 394.142 256.349 394.842 256.657C395.542 256.965 396.17 257.416 396.687 257.98C397.203 258.545 397.597 259.211 397.842 259.935C398.087 260.66 398.178 261.428 398.11 262.19L397.42 270.05C397.317 271.307 396.785 272.49 395.913 273.4C395.04 274.311 393.881 274.893 392.63 275.05L391.08 275.25C390.149 275.368 389.287 275.802 388.637 276.479C387.987 277.156 387.59 278.035 387.51 278.97L383.78 322C383.645 323.515 382.949 324.924 381.827 325.951C380.706 326.978 379.241 327.548 377.72 327.55H276.5C274.979 327.548 273.514 326.978 272.393 325.951C271.271 324.924 270.575 323.515 270.44 322L266.67 278.9C266.587 277.966 266.188 277.089 265.539 276.412C264.89 275.736 264.029 275.301 263.1 275.18L261.55 274.98C260.298 274.822 259.139 274.239 258.265 273.329C257.392 272.419 256.857 271.237 256.75 269.98L256.07 262.12C256.012 261.364 256.111 260.603 256.361 259.887C256.61 259.171 257.005 258.513 257.521 257.957C258.036 257.4 258.661 256.956 259.356 256.652C260.051 256.348 260.801 256.19 261.56 256.19Z" fill="#F0F0F0"/>
<path d="M102.16 108.48C102.16 108.48 101.05 101.17 106.38 96.48C111.71 91.79 111.24 89.01 109.71 88.65C108.18 88.29 106.79 92.97 104.45 94.26C104.45 94.26 104.37 87.58 106.75 85.13C109.13 82.68 110.38 76.33 108.11 76.22C105.84 76.11 105.62 79.98 105.11 82.73C104.6 85.48 102.11 89.34 102.11 89.34C102.11 89.34 101.62 83.34 100.11 80.91C98.5999 78.48 102.67 72.83 101.11 70.38C99.5499 67.93 96.7199 72.6 96.9499 77.87C97.1799 83.14 100.7 88.76 99.8799 94.26C99.8799 94.26 98.3299 90.39 96.9399 90.04C95.5499 89.69 94.1399 87.14 93.2099 86.19C92.2799 85.24 91.0999 88.52 93.2099 91.56C95.3199 94.6 100.7 102.75 99.8799 109.33L102.16 108.48Z" fill="#E6E6E6"/>
<path d="M105.34 105.15L107.09 116.1C107.216 116.895 107.168 117.708 106.949 118.483C106.73 119.257 106.347 119.975 105.824 120.587C105.301 121.199 104.652 121.691 103.921 122.028C103.19 122.365 102.395 122.54 101.59 122.54H99.73C98.9251 122.54 98.1298 122.365 97.3989 122.028C96.668 121.691 96.0188 121.199 95.4961 120.587C94.9733 119.975 94.5895 119.257 94.3709 118.483C94.1523 117.708 94.1043 116.895 94.23 116.1L96 105.15H105.34Z" fill="#E6E6E6"/>
<path d="M210.05 120.4H215.48V97.05H210.05V120.4Z" fill="#EBEBEB"/>
<path d="M183.79 120.4H189.22V97.05H183.79V120.4Z" fill="#EBEBEB"/>
<path d="M150.014 119.472L155.365 120.394L159.332 97.3836L153.981 96.4612L150.014 119.472Z" fill="#EBEBEB"/>
<path d="M203.32 120.39H208.75V100.12H203.32V120.39Z" fill="#EBEBEB"/>
<path d="M190.84 120.39H196.27V100.12H190.84V120.39Z" fill="#EBEBEB"/>
<path d="M159.32 120.39H164.75V100.12H159.32V120.39Z" fill="#EBEBEB"/>
<path d="M172.27 119.214L177.571 120.392L181.969 100.605L176.668 99.427L172.27 119.214Z" fill="#EBEBEB"/>
<path d="M198.62 120.4H201.34V95.89H198.62V120.4Z" fill="#EBEBEB"/>
<path d="M166.31 120.4H169.03V95.89H166.31V120.4Z" fill="#EBEBEB"/>
<path d="M146.95 101.86H120.48V120.13H146.95V101.86Z" fill="#EBEBEB"/>
<path d="M237.73 109.34H215.56V122.98H237.73V109.34Z" fill="#EBEBEB"/>
<path d="M232.55 97.35H221.46V110.99H232.55V97.35Z" fill="#EBEBEB"/>
<path d="M417.81 79.3H391.44V189.18H417.81V79.3Z" fill="#E0E0E0"/>
<path d="M316.36 189.48H414.98V79.31L316.36 79.31V189.48Z" fill="#E0E0E0"/>
<path d="M313.18 189.48H415.5V79.31L313.18 79.31V189.48Z" fill="#F0F0F0"/>
<path d="M317.56 184.41H411.3V82.81L317.56 82.81V184.41Z" fill="white"/>
<path d="M317.55 184.41H319.29V82.81H317.55V184.41Z" fill="#E0E0E0"/>
<path d="M319.01 155.88V158.62H411.55V155.88H319.01Z" fill="#E0E0E0"/>
<path d="M317.55 155.87H412.76V151.27H317.55V155.87Z" fill="#F0F0F0"/>
<path d="M250 372.56C357.083 372.56 443.89 367.492 443.89 361.24C443.89 354.988 357.083 349.92 250 349.92C142.918 349.92 56.1104 354.988 56.1104 361.24C56.1104 367.492 142.918 372.56 250 372.56Z" fill="#F5F5F5"/>
<path d="M321.95 97.8201H143.04C138.997 97.8201 135.72 101.097 135.72 105.14V315.8C135.72 319.843 138.997 323.12 143.04 323.12H321.95C325.992 323.12 329.27 319.843 329.27 315.8V105.14C329.27 101.097 325.992 97.8201 321.95 97.8201Z" fill="#58A4BD"/>
<path opacity="0.6" d="M321.95 97.8201H143.04C138.997 97.8201 135.72 101.097 135.72 105.14V315.8C135.72 319.843 138.997 323.12 143.04 323.12H321.95C325.992 323.12 329.27 319.843 329.27 315.8V105.14C329.27 101.097 325.992 97.8201 321.95 97.8201Z" fill="white"/>
<path d="M297.92 201.15H167.08V223.55H297.92V201.15Z" fill="white"/>
<g opacity="0.4">
<path opacity="0.4" d="M178.78 214.53V215.12H174.24V208.7H178.64V209.28H174.92V211.57H178.24V212.14H174.92V214.53H178.78Z" fill="#263238"/>
<path opacity="0.4" d="M179.69 212.35H182.1V212.91H179.69V212.35Z" fill="#263238"/>
<path opacity="0.4" d="M191.51 212.32V215.12H190.86V212.38C190.86 211.38 190.35 210.84 189.48 210.84C189.254 210.83 189.029 210.868 188.82 210.954C188.611 211.04 188.424 211.17 188.27 211.336C188.117 211.501 188.002 211.699 187.932 211.914C187.863 212.129 187.842 212.356 187.87 212.58V215.12H187.21V212.38C187.21 211.38 186.7 210.84 185.82 210.84C185.594 210.83 185.369 210.868 185.16 210.954C184.951 211.04 184.764 211.17 184.61 211.336C184.457 211.501 184.342 211.699 184.272 211.914C184.203 212.129 184.182 212.356 184.21 212.58V215.12H183.55V210.29H184.18V211.17C184.369 210.875 184.631 210.635 184.942 210.474C185.253 210.312 185.6 210.235 185.95 210.25C186.303 210.22 186.657 210.3 186.963 210.479C187.269 210.658 187.513 210.927 187.66 211.25C187.86 210.928 188.142 210.665 188.478 210.489C188.814 210.313 189.191 210.231 189.57 210.25C189.841 210.229 190.114 210.27 190.368 210.369C190.621 210.467 190.85 210.622 191.036 210.82C191.222 211.019 191.361 211.257 191.443 211.516C191.525 211.776 191.548 212.051 191.51 212.32Z" fill="#263238"/>
<path opacity="0.4" d="M196.93 212.12V215.12H196.3V214.36C196.121 214.631 195.872 214.848 195.58 214.989C195.288 215.129 194.963 215.189 194.64 215.16C193.55 215.16 192.88 214.59 192.88 213.76C192.88 212.93 193.36 212.39 194.74 212.39H196.27V212.1C196.27 211.27 195.81 210.82 194.91 210.82C194.322 210.813 193.752 211.015 193.3 211.39L193.01 210.91C193.575 210.456 194.285 210.221 195.01 210.25C195.265 210.219 195.524 210.246 195.767 210.328C196.011 210.41 196.233 210.546 196.417 210.725C196.602 210.905 196.743 211.123 196.832 211.364C196.921 211.606 196.954 211.864 196.93 212.12ZM196.27 213.67V212.88H194.76C193.83 212.88 193.52 213.24 193.52 213.74C193.52 214.24 193.97 214.65 194.74 214.65C195.066 214.672 195.391 214.588 195.666 214.412C195.941 214.235 196.153 213.975 196.27 213.67Z" fill="#263238"/>
<path opacity="0.4" d="M198.55 208.77C198.551 208.708 198.565 208.647 198.589 208.591C198.614 208.534 198.65 208.483 198.695 208.441C198.739 208.398 198.792 208.364 198.849 208.342C198.907 208.32 198.968 208.309 199.03 208.31C199.09 208.309 199.15 208.319 199.207 208.341C199.263 208.363 199.314 208.396 199.358 208.438C199.402 208.479 199.437 208.529 199.461 208.585C199.485 208.64 199.499 208.7 199.5 208.76C199.501 208.823 199.49 208.885 199.467 208.943C199.444 209.001 199.409 209.054 199.366 209.099C199.322 209.144 199.27 209.179 199.212 209.203C199.154 209.228 199.092 209.24 199.03 209.24C198.967 209.241 198.905 209.23 198.847 209.207C198.789 209.184 198.736 209.15 198.691 209.106C198.646 209.062 198.611 209.01 198.587 208.952C198.562 208.895 198.55 208.833 198.55 208.77ZM198.7 210.29H199.35V215.12H198.7V210.29Z" fill="#263238"/>
<path opacity="0.4" d="M201.16 208.31H201.81V215.12H201.16V208.31Z" fill="#263238"/>
</g>
<path d="M297.92 231.75H167.08V254.15H297.92V231.75Z" fill="white"/>
<g opacity="0.4">
<path opacity="0.4" d="M179.26 241.53C179.26 242.9 178.26 243.73 176.64 243.73H174.92V245.73H174.24V239.31H176.64C178.27 239.33 179.26 240.16 179.26 241.53ZM178.58 241.53C178.58 240.53 177.91 239.92 176.58 239.92H174.88V243.13H176.58C177.91 243.13 178.58 242.54 178.58 241.53Z" fill="#263238"/>
<path opacity="0.4" d="M184.19 242.76V245.76H183.56V245C183.381 245.271 183.132 245.488 182.84 245.629C182.548 245.769 182.223 245.829 181.9 245.8C180.81 245.8 180.14 245.23 180.14 244.39C180.14 243.55 180.62 243 182 243H183.53V242.7C183.53 241.88 183.06 241.43 182.16 241.43C181.575 241.422 181.008 241.624 180.56 242L180.26 241.51C180.829 241.065 181.537 240.835 182.26 240.86C182.518 240.826 182.781 240.852 183.029 240.935C183.276 241.019 183.501 241.157 183.687 241.34C183.873 241.523 184.015 241.746 184.102 241.992C184.189 242.238 184.219 242.501 184.19 242.76ZM183.54 244.3V243.51H182C181.07 243.51 180.77 243.88 180.77 244.38C180.77 244.88 181.21 245.28 181.99 245.28C182.319 245.304 182.647 245.222 182.926 245.046C183.206 244.869 183.42 244.608 183.54 244.3Z" fill="#263238"/>
<path opacity="0.4" d="M185.29 245.2L185.58 244.69C186.084 245.042 186.685 245.231 187.3 245.23C188.21 245.23 188.59 244.92 188.59 244.44C188.59 243.18 185.46 244.17 185.46 242.27C185.46 241.48 186.14 240.89 187.37 240.89C187.97 240.885 188.56 241.04 189.08 241.34L188.79 241.86C188.369 241.582 187.874 241.439 187.37 241.45C186.5 241.45 186.11 241.79 186.11 242.25C186.11 243.55 189.24 242.57 189.24 244.42C189.24 245.26 188.51 245.8 187.24 245.8C186.542 245.818 185.857 245.607 185.29 245.2Z" fill="#263238"/>
<path opacity="0.4" d="M189.77 245.2L190.07 244.69C190.568 245.046 191.167 245.235 191.78 245.23C192.7 245.23 193.07 244.92 193.07 244.44C193.07 243.18 189.95 244.17 189.95 242.27C189.95 241.48 190.63 240.89 191.85 240.89C192.45 240.882 193.041 241.038 193.56 241.34L193.28 241.86C192.855 241.583 192.357 241.44 191.85 241.45C190.98 241.45 190.6 241.79 190.6 242.25C190.6 243.55 193.73 242.57 193.73 244.42C193.73 245.26 192.99 245.8 191.73 245.8C191.029 245.817 190.341 245.606 189.77 245.2Z" fill="#263238"/>
<path opacity="0.4" d="M201.91 240.93L200.09 245.75H199.48L198 241.8L196.48 245.75H195.87L194 240.93H194.62L196.14 245.03L197.69 240.93H198.25L199.79 245.03L201.32 240.93H201.91Z" fill="#263238"/>
<path opacity="0.4" d="M202.27 243.34C202.27 242.853 202.414 242.378 202.684 241.973C202.955 241.569 203.339 241.253 203.788 241.067C204.238 240.881 204.732 240.832 205.21 240.927C205.687 241.022 206.125 241.256 206.469 241.601C206.813 241.945 207.048 242.383 207.142 242.86C207.237 243.337 207.189 243.832 207.002 244.281C206.816 244.731 206.501 245.115 206.096 245.385C205.692 245.656 205.216 245.8 204.73 245.8C204.404 245.811 204.079 245.755 203.775 245.635C203.472 245.516 203.196 245.335 202.965 245.104C202.735 244.874 202.554 244.598 202.434 244.294C202.315 243.991 202.259 243.666 202.27 243.34ZM206.52 243.34C206.504 242.987 206.385 242.647 206.177 242.362C205.97 242.076 205.683 241.858 205.353 241.734C205.022 241.611 204.662 241.587 204.318 241.666C203.974 241.745 203.661 241.923 203.418 242.179C203.174 242.434 203.012 242.756 202.95 243.103C202.887 243.451 202.929 243.809 203.069 244.133C203.208 244.457 203.44 244.733 203.736 244.926C204.031 245.119 204.377 245.222 204.73 245.22C204.974 245.225 205.216 245.179 205.442 245.085C205.667 244.991 205.87 244.851 206.038 244.674C206.207 244.497 206.337 244.287 206.419 244.058C206.502 243.828 206.536 243.584 206.52 243.34Z" fill="#263238"/>
<path opacity="0.4" d="M210.94 240.89V241.52H210.78C210.551 241.509 210.323 241.549 210.111 241.636C209.899 241.723 209.709 241.856 209.555 242.025C209.4 242.194 209.284 242.395 209.216 242.613C209.148 242.832 209.129 243.063 209.16 243.29V245.75H208.51V240.93H209.13V241.87C209.298 241.544 209.561 241.276 209.884 241.101C210.207 240.927 210.575 240.853 210.94 240.89Z" fill="#263238"/>
<path opacity="0.4" d="M216.47 239V245.8H215.85V244.85C215.656 245.166 215.381 245.425 215.055 245.601C214.728 245.776 214.36 245.862 213.99 245.85C213.366 245.81 212.78 245.534 212.352 245.078C211.925 244.622 211.687 244.02 211.687 243.395C211.687 242.77 211.925 242.168 212.352 241.712C212.78 241.256 213.366 240.98 213.99 240.94C214.356 240.932 214.717 241.02 215.038 241.195C215.36 241.371 215.629 241.628 215.82 241.94V239H216.47ZM215.83 243.39C215.814 243.037 215.695 242.697 215.488 242.412C215.28 242.126 214.993 241.908 214.663 241.784C214.332 241.661 213.972 241.637 213.628 241.716C213.284 241.795 212.971 241.973 212.728 242.229C212.485 242.484 212.322 242.806 212.26 243.153C212.198 243.501 212.239 243.859 212.379 244.183C212.519 244.507 212.751 244.783 213.046 244.976C213.341 245.169 213.687 245.272 214.04 245.27C214.288 245.275 214.535 245.228 214.764 245.131C214.993 245.034 215.199 244.89 215.368 244.707C215.538 244.525 215.666 244.309 215.746 244.073C215.825 243.837 215.854 243.588 215.83 243.34V243.39Z" fill="#263238"/>
</g>
<path opacity="0.2" d="M297.92 277H167.08V299.4H297.92V277Z" fill="black"/>
<g opacity="0.5">
<path opacity="0.5" d="M198.9 266.71H196.76L196.3 267.71H195.88L197.63 263.88H198.03L199.78 267.71H199.36L198.9 266.71ZM198.75 266.38L197.83 264.32L196.91 266.38H198.75Z" fill="black"/>
<path opacity="0.5" d="M200.34 263.67H200.73V267.73H200.34V263.67Z" fill="black"/>
<path opacity="0.5" d="M203.27 264.83V265.21H203.17C203.03 265.198 202.889 265.218 202.758 265.268C202.628 265.318 202.51 265.397 202.413 265.498C202.317 265.6 202.245 265.723 202.203 265.856C202.161 265.99 202.149 266.131 202.17 266.27V267.74H201.78V264.86H202.16V265.42C202.26 265.218 202.421 265.053 202.62 264.947C202.819 264.841 203.046 264.8 203.27 264.83Z" fill="black"/>
<path opacity="0.5" d="M206.45 266.41H204C204.007 266.55 204.043 266.688 204.104 266.814C204.165 266.94 204.251 267.053 204.356 267.146C204.461 267.239 204.583 267.311 204.716 267.356C204.849 267.401 204.99 267.42 205.13 267.41C205.296 267.416 205.461 267.386 205.615 267.322C205.768 267.258 205.907 267.162 206.02 267.04L206.23 267.29C206.023 267.507 205.757 267.658 205.465 267.724C205.172 267.791 204.867 267.769 204.587 267.662C204.307 267.555 204.065 267.368 203.891 267.124C203.717 266.88 203.619 266.59 203.61 266.29C203.6 266.1 203.63 265.91 203.696 265.732C203.763 265.554 203.866 265.391 203.998 265.254C204.13 265.117 204.289 265.009 204.465 264.936C204.641 264.863 204.829 264.827 205.02 264.83C205.21 264.826 205.399 264.861 205.575 264.933C205.751 265.006 205.91 265.114 206.042 265.252C206.173 265.389 206.275 265.552 206.34 265.731C206.405 265.91 206.432 266.1 206.42 266.29C206.42 266.29 206.45 266.37 206.45 266.41ZM204.04 266.12H206.04C206.04 265.855 205.934 265.601 205.747 265.413C205.559 265.225 205.305 265.12 205.04 265.12C204.774 265.12 204.52 265.225 204.333 265.413C204.145 265.601 204.04 265.855 204.04 266.12Z" fill="black"/>
<path opacity="0.5" d="M209.34 266V267.78H209V267.33C208.893 267.495 208.744 267.627 208.567 267.711C208.391 267.796 208.194 267.83 208 267.81C207.35 267.81 207 267.47 207 266.97C207 266.47 207.28 266.15 208.11 266.15H209V265.98C209 265.49 208.72 265.22 208.18 265.22C207.816 265.207 207.46 265.328 207.18 265.56L207.01 265.27C207.341 265.006 207.756 264.867 208.18 264.88C208.334 264.854 208.493 264.864 208.643 264.91C208.793 264.956 208.93 265.037 209.043 265.146C209.156 265.255 209.242 265.39 209.293 265.538C209.345 265.686 209.361 265.845 209.34 266ZM208.96 266.92V266.44H208.05C207.49 266.44 207.31 266.66 207.31 266.96C207.31 267.26 207.58 267.5 208.04 267.5C208.247 267.516 208.453 267.463 208.627 267.349C208.801 267.235 208.932 267.066 209 266.87L208.96 266.92Z" fill="black"/>
<path opacity="0.5" d="M213 263.67V267.73H212.63V267.16C212.516 267.351 212.353 267.508 212.158 267.613C211.962 267.719 211.742 267.77 211.52 267.76C211.152 267.73 210.809 267.562 210.559 267.291C210.31 267.019 210.171 266.664 210.171 266.295C210.171 265.926 210.31 265.571 210.559 265.299C210.809 265.028 211.152 264.861 211.52 264.83C211.736 264.824 211.951 264.874 212.143 264.973C212.336 265.073 212.5 265.22 212.62 265.4V263.67H213ZM212.62 266.29C212.61 266.081 212.539 265.879 212.416 265.71C212.292 265.541 212.122 265.411 211.926 265.338C211.73 265.265 211.516 265.25 211.312 265.297C211.108 265.344 210.922 265.45 210.777 265.601C210.633 265.752 210.536 265.943 210.498 266.149C210.461 266.355 210.485 266.568 210.567 266.76C210.649 266.953 210.786 267.117 210.961 267.233C211.136 267.348 211.34 267.41 211.55 267.41C211.699 267.419 211.848 267.396 211.987 267.343C212.127 267.289 212.253 267.207 212.358 267.101C212.463 266.995 212.544 266.868 212.596 266.728C212.648 266.588 212.67 266.439 212.66 266.29H212.62Z" fill="black"/>
<path opacity="0.5" d="M216.55 264.85L215.11 268.08C214.87 268.64 214.56 268.82 214.11 268.82C213.852 268.827 213.601 268.734 213.41 268.56L213.59 268.27C213.73 268.411 213.921 268.49 214.12 268.49C214.38 268.49 214.55 268.37 214.72 268L214.84 267.73L213.55 264.85H214L215.09 267.3L216.17 264.85H216.55Z" fill="black"/>
<path opacity="0.5" d="M220.71 266V267.78H220.34V267.33C220.234 267.495 220.084 267.627 219.907 267.711C219.731 267.796 219.534 267.83 219.34 267.81C218.69 267.81 218.34 267.47 218.34 266.97C218.34 266.47 218.62 266.15 219.45 266.15H220.36V265.98C220.36 265.49 220.09 265.22 219.55 265.22C219.186 265.207 218.83 265.328 218.55 265.56L218.37 265.27C218.705 265.006 219.123 264.868 219.55 264.88C219.704 264.854 219.863 264.864 220.013 264.91C220.163 264.956 220.3 265.037 220.413 265.146C220.526 265.255 220.612 265.39 220.663 265.538C220.715 265.686 220.731 265.845 220.71 266ZM220.32 266.92V266.44H219.42C218.86 266.44 218.68 266.66 218.68 266.96C218.68 267.26 218.95 267.5 219.41 267.5C219.609 267.508 219.806 267.451 219.97 267.337C220.134 267.224 220.257 267.06 220.32 266.87V266.92Z" fill="black"/>
<path opacity="0.5" d="M228 266.06V267.73H227.62V266.1C227.62 265.49 227.31 265.18 226.79 265.18C226.656 265.17 226.521 265.188 226.395 265.235C226.269 265.281 226.154 265.355 226.059 265.45C225.964 265.545 225.891 265.659 225.844 265.785C225.798 265.911 225.779 266.046 225.79 266.18V267.69H225.41V266.1C225.41 265.49 225.1 265.18 224.57 265.18C224.436 265.17 224.301 265.188 224.175 265.235C224.049 265.281 223.934 265.355 223.839 265.45C223.744 265.545 223.671 265.659 223.624 265.785C223.578 265.911 223.559 266.046 223.57 266.18V267.69H223.18V264.81H223.55V265.34C223.66 265.161 223.817 265.015 224.003 264.918C224.19 264.821 224.4 264.777 224.61 264.79C224.819 264.774 225.029 264.824 225.208 264.933C225.388 265.043 225.528 265.206 225.61 265.4C225.726 265.204 225.894 265.044 226.095 264.936C226.296 264.829 226.522 264.778 226.75 264.79C226.922 264.759 227.1 264.771 227.267 264.824C227.435 264.877 227.586 264.971 227.709 265.096C227.832 265.221 227.923 265.374 227.974 265.542C228.024 265.71 228.033 265.888 228 266.06Z" fill="black"/>
<path opacity="0.5" d="M231.54 266.41H229.13C229.15 266.693 229.281 266.957 229.495 267.144C229.708 267.331 229.986 267.427 230.27 267.41C230.434 267.416 230.598 267.387 230.751 267.323C230.903 267.259 231.039 267.162 231.15 267.04L231.37 267.29C231.229 267.443 231.057 267.565 230.866 267.646C230.674 267.727 230.467 267.766 230.26 267.76C230.061 267.773 229.863 267.744 229.676 267.675C229.49 267.606 229.32 267.499 229.178 267.361C229.036 267.222 228.924 267.055 228.85 266.871C228.776 266.686 228.742 266.489 228.75 266.29C228.75 265.919 228.897 265.563 229.16 265.3C229.422 265.038 229.778 264.89 230.15 264.89C230.521 264.89 230.877 265.038 231.139 265.3C231.402 265.563 231.55 265.919 231.55 266.29C231.55 266.29 231.54 266.37 231.54 266.41ZM229.13 266.12H231.18C231.18 265.848 231.072 265.588 230.879 265.395C230.687 265.203 230.426 265.095 230.155 265.095C229.883 265.095 229.622 265.203 229.43 265.395C229.238 265.588 229.13 265.848 229.13 266.12Z" fill="black"/>
<path opacity="0.5" d="M237.1 266.06V267.73H236.71V266.1C236.71 265.49 236.41 265.18 235.89 265.18C235.755 265.168 235.62 265.185 235.493 265.231C235.366 265.277 235.251 265.35 235.155 265.446C235.06 265.541 234.986 265.656 234.941 265.783C234.895 265.91 234.877 266.046 234.89 266.18V267.69H234.5V266.1C234.5 265.49 234.2 265.18 233.67 265.18C233.535 265.168 233.4 265.185 233.273 265.231C233.146 265.277 233.031 265.35 232.935 265.446C232.84 265.541 232.766 265.656 232.721 265.783C232.675 265.91 232.657 266.046 232.67 266.18V267.69H232.28V264.81H232.65V265.34C232.759 265.16 232.916 265.014 233.103 264.917C233.289 264.82 233.499 264.776 233.71 264.79C233.919 264.774 234.129 264.824 234.308 264.933C234.488 265.043 234.628 265.206 234.71 265.4C234.826 265.204 234.994 265.044 235.195 264.936C235.395 264.829 235.622 264.778 235.85 264.79C236.022 264.759 236.2 264.771 236.367 264.824C236.534 264.877 236.686 264.971 236.809 265.096C236.932 265.221 237.023 265.374 237.074 265.542C237.124 265.71 237.133 265.888 237.1 266.06Z" fill="black"/>
<path opacity="0.5" d="M241.08 266.29C241.089 266.482 241.059 266.674 240.991 266.855C240.923 267.035 240.819 267.199 240.685 267.337C240.551 267.475 240.39 267.583 240.211 267.656C240.033 267.729 239.842 267.765 239.65 267.76C239.428 267.77 239.207 267.719 239.012 267.613C238.816 267.508 238.653 267.351 238.54 267.16V267.73H238.16V263.67H238.55V265.4C238.669 265.219 238.833 265.072 239.025 264.972C239.218 264.872 239.433 264.823 239.65 264.83C239.842 264.824 240.033 264.858 240.211 264.93C240.389 265.002 240.55 265.11 240.684 265.247C240.819 265.384 240.923 265.548 240.991 265.727C241.059 265.907 241.089 266.098 241.08 266.29ZM240.69 266.29C240.68 266.081 240.609 265.879 240.486 265.71C240.362 265.541 240.192 265.411 239.996 265.338C239.8 265.265 239.586 265.25 239.382 265.297C239.178 265.344 238.992 265.45 238.847 265.601C238.702 265.752 238.605 265.943 238.568 266.149C238.531 266.355 238.555 266.568 238.637 266.76C238.719 266.953 238.856 267.117 239.031 267.233C239.205 267.348 239.41 267.41 239.62 267.41C239.765 267.413 239.91 267.386 240.045 267.33C240.179 267.274 240.301 267.191 240.401 267.086C240.502 266.98 240.579 266.855 240.629 266.718C240.679 266.581 240.699 266.436 240.69 266.29Z" fill="black"/>
<path opacity="0.5" d="M244.39 266.41H242C242.007 266.55 242.043 266.688 242.104 266.814C242.165 266.94 242.25 267.053 242.356 267.146C242.461 267.239 242.583 267.311 242.716 267.356C242.849 267.401 242.99 267.42 243.13 267.41C243.296 267.41 243.46 267.373 243.61 267.302C243.761 267.231 243.894 267.128 244 267L244.22 267.25C244.013 267.467 243.747 267.618 243.455 267.684C243.162 267.751 242.857 267.729 242.577 267.622C242.297 267.515 242.055 267.328 241.881 267.084C241.707 266.84 241.609 266.55 241.6 266.25C241.59 266.06 241.62 265.87 241.686 265.692C241.753 265.514 241.856 265.351 241.988 265.214C242.12 265.077 242.279 264.969 242.455 264.896C242.631 264.823 242.819 264.787 243.01 264.79C243.2 264.785 243.388 264.82 243.564 264.893C243.739 264.966 243.897 265.074 244.028 265.212C244.159 265.349 244.26 265.513 244.324 265.692C244.388 265.87 244.414 266.061 244.4 266.25L244.39 266.41ZM241.98 266.12H243.98C243.98 265.855 243.874 265.601 243.687 265.413C243.499 265.225 243.245 265.12 242.98 265.12C242.714 265.12 242.46 265.225 242.273 265.413C242.085 265.601 241.98 265.855 241.98 266.12Z" fill="black"/>
<path opacity="0.5" d="M246.64 264.83V265.21H246.55C246.41 265.198 246.27 265.218 246.139 265.268C246.008 265.318 245.89 265.397 245.794 265.499C245.697 265.601 245.626 265.723 245.583 265.856C245.541 265.99 245.53 266.132 245.55 266.27V267.74H245.16V264.86H245.53V265.42C245.631 265.219 245.792 265.055 245.991 264.949C246.19 264.843 246.416 264.802 246.64 264.83Z" fill="black"/>
<path opacity="0.5" d="M249.16 264.88C249.16 264.48 248.84 264.21 248.28 264.21C248.083 264.199 247.886 264.233 247.704 264.309C247.522 264.385 247.36 264.502 247.23 264.65L246.94 264.43C247.11 264.238 247.322 264.086 247.559 263.988C247.797 263.889 248.053 263.845 248.31 263.86C249.08 263.86 249.57 264.23 249.57 264.86C249.57 265.79 248.57 265.86 248.57 266.62H248.16C248.16 265.68 249.16 265.59 249.16 264.88ZM248.08 267.47C248.092 267.404 248.128 267.344 248.18 267.301C248.232 267.257 248.297 267.234 248.365 267.234C248.432 267.234 248.498 267.257 248.55 267.301C248.602 267.344 248.637 267.404 248.65 267.47C248.658 267.512 248.656 267.555 248.645 267.596C248.635 267.638 248.615 267.676 248.588 267.709C248.561 267.742 248.527 267.768 248.488 267.786C248.449 267.804 248.407 267.814 248.365 267.814C248.322 267.814 248.28 267.804 248.241 267.786C248.203 267.768 248.169 267.742 248.141 267.709C248.114 267.676 248.095 267.638 248.084 267.596C248.073 267.555 248.072 267.512 248.08 267.47Z" fill="black"/>
<path opacity="0.5" d="M251.87 263.9H252.76V267H254.68V267.72H251.87V263.9Z" fill="black"/>
<path opacity="0.5" d="M254.88 266.26C254.86 265.936 254.937 265.614 255.103 265.335C255.268 265.055 255.513 264.832 255.807 264.694C256.101 264.556 256.429 264.509 256.75 264.56C257.07 264.611 257.368 264.757 257.605 264.979C257.842 265.201 258.006 265.489 258.077 265.806C258.148 266.122 258.123 266.453 258.003 266.755C257.884 267.057 257.677 267.316 257.409 267.499C257.141 267.681 256.824 267.78 256.5 267.78C256.292 267.794 256.083 267.765 255.887 267.694C255.691 267.624 255.511 267.514 255.36 267.372C255.208 267.229 255.087 267.057 255.004 266.866C254.921 266.675 254.879 266.468 254.88 266.26ZM257.25 266.26C257.238 266.115 257.184 265.976 257.095 265.861C257.006 265.746 256.885 265.659 256.747 265.611C256.61 265.564 256.461 265.557 256.32 265.593C256.179 265.628 256.051 265.704 255.952 265.811C255.853 265.918 255.787 266.051 255.763 266.195C255.738 266.338 255.756 266.486 255.814 266.619C255.872 266.753 255.968 266.867 256.09 266.947C256.211 267.027 256.354 267.07 256.5 267.07C256.604 267.072 256.707 267.052 256.803 267.011C256.899 266.97 256.985 266.91 257.056 266.833C257.127 266.757 257.181 266.666 257.214 266.567C257.247 266.469 257.259 266.364 257.25 266.26Z" fill="black"/>
<path opacity="0.5" d="M261.73 264.78V267.24C261.757 267.461 261.733 267.686 261.659 267.896C261.585 268.106 261.463 268.296 261.303 268.451C261.143 268.606 260.949 268.722 260.737 268.789C260.525 268.857 260.3 268.874 260.08 268.84C259.565 268.86 259.058 268.716 258.63 268.43L258.97 267.82C259.262 268.029 259.61 268.144 259.97 268.15C260.57 268.15 260.84 267.88 260.84 267.35V267.22C260.72 267.345 260.575 267.442 260.415 267.506C260.254 267.57 260.082 267.598 259.91 267.59C259.712 267.607 259.514 267.582 259.327 267.518C259.14 267.454 258.968 267.352 258.822 267.218C258.676 267.084 258.56 266.921 258.481 266.74C258.401 266.559 258.36 266.363 258.36 266.165C258.36 265.967 258.401 265.772 258.481 265.59C258.56 265.409 258.676 265.247 258.822 265.113C258.968 264.979 259.14 264.876 259.327 264.812C259.514 264.748 259.712 264.724 259.91 264.74C260.098 264.725 260.287 264.755 260.461 264.828C260.635 264.902 260.789 265.015 260.91 265.16V264.78H261.73ZM260.89 266.17C260.893 266.07 260.875 265.97 260.837 265.878C260.798 265.785 260.741 265.701 260.668 265.632C260.596 265.563 260.509 265.511 260.415 265.477C260.32 265.444 260.219 265.432 260.12 265.44C260.017 265.428 259.913 265.438 259.815 265.469C259.717 265.5 259.626 265.551 259.549 265.62C259.472 265.688 259.411 265.772 259.368 265.866C259.326 265.96 259.304 266.062 259.304 266.165C259.304 266.268 259.326 266.37 259.368 266.464C259.411 266.558 259.472 266.642 259.549 266.711C259.626 266.779 259.717 266.831 259.815 266.861C259.913 266.892 260.017 266.902 260.12 266.89C260.219 266.899 260.318 266.886 260.412 266.854C260.506 266.821 260.592 266.769 260.665 266.701C260.737 266.633 260.795 266.551 260.833 266.46C260.872 266.368 260.891 266.269 260.89 266.17Z" fill="black"/>
<path opacity="0.5" d="M264 263.9C264.001 263.833 264.016 263.767 264.043 263.706C264.071 263.645 264.111 263.59 264.161 263.545C264.21 263.5 264.269 263.466 264.332 263.444C264.396 263.423 264.463 263.415 264.53 263.42C264.595 263.413 264.661 263.42 264.724 263.44C264.787 263.459 264.845 263.492 264.894 263.535C264.944 263.578 264.984 263.631 265.013 263.69C265.041 263.75 265.057 263.814 265.06 263.88C265.06 264.021 265.004 264.155 264.904 264.255C264.805 264.354 264.67 264.41 264.53 264.41C264.389 264.41 264.254 264.354 264.155 264.255C264.055 264.155 264 264.021 264 263.88V263.9ZM264.1 264.78H264.95V267.78H264.1V264.78Z" fill="black"/>
<path opacity="0.5" d="M268.74 266V267.69H267.89V266.14C267.89 265.66 267.67 265.44 267.29 265.44C266.91 265.44 266.58 265.69 266.58 266.23V267.69H265.73V264.69H266.55V265.04C266.679 264.907 266.835 264.803 267.007 264.736C267.18 264.669 267.365 264.639 267.55 264.65C267.722 264.641 267.895 264.672 268.054 264.739C268.214 264.806 268.356 264.908 268.47 265.038C268.585 265.168 268.668 265.322 268.715 265.488C268.762 265.655 268.77 265.83 268.74 266Z" fill="black"/>
</g>
<path d="M297.92 275.63H167.08V298.03H297.92V275.63Z" fill="#58A4BD"/>
<path d="M215.6 290.31L214 288H213.52H211.62V290.33H210.52V282.66H213.52C215.52 282.66 216.71 283.66 216.71 285.34C216.735 285.872 216.584 286.398 216.28 286.835C215.977 287.273 215.537 287.598 215.03 287.76L216.85 290.33L215.6 290.31ZM215.6 285.31C215.6 284.21 214.87 283.59 213.46 283.59H211.6V287.04H213.46C214.84 287.05 215.57 286.41 215.57 285.32L215.6 285.31Z" fill="white"/>
<path d="M223.52 287.76H218.81C218.884 288.255 219.14 288.704 219.529 289.018C219.918 289.333 220.41 289.491 220.91 289.46C221.224 289.471 221.536 289.415 221.826 289.294C222.116 289.173 222.377 288.991 222.59 288.76L223.17 289.44C222.742 289.874 222.197 290.176 221.602 290.309C221.007 290.442 220.386 290.4 219.814 290.189C219.242 289.978 218.743 289.606 218.377 289.119C218.011 288.631 217.793 288.048 217.75 287.44C217.729 287.047 217.789 286.655 217.928 286.287C218.066 285.918 218.279 285.583 218.553 285.301C218.828 285.019 219.157 284.797 219.521 284.649C219.886 284.501 220.277 284.43 220.67 284.44C221.061 284.429 221.45 284.5 221.811 284.649C222.173 284.798 222.5 285.021 222.77 285.303C223.04 285.586 223.249 285.922 223.381 286.29C223.514 286.658 223.568 287.05 223.54 287.44C223.54 287.53 223.53 287.66 223.52 287.76ZM218.81 287H222.53C222.482 286.54 222.265 286.114 221.922 285.804C221.578 285.495 221.132 285.323 220.67 285.323C220.207 285.323 219.761 285.495 219.417 285.804C219.074 286.114 218.857 286.54 218.81 287Z" fill="white"/>
<path d="M230.56 284.51V289.51C230.56 291.56 229.51 292.51 227.56 292.51C226.565 292.553 225.585 292.249 224.79 291.65L225.29 290.84C225.93 291.337 226.719 291.602 227.53 291.59C228.9 291.59 229.53 290.96 229.53 289.64V289.18C229.271 289.477 228.949 289.712 228.587 289.868C228.225 290.024 227.833 290.096 227.44 290.08C226.694 290.08 225.98 289.784 225.453 289.257C224.926 288.73 224.63 288.015 224.63 287.27C224.63 286.525 224.926 285.81 225.453 285.283C225.98 284.756 226.694 284.46 227.44 284.46C227.851 284.448 228.26 284.532 228.633 284.705C229.007 284.879 229.334 285.137 229.59 285.46V284.56L230.56 284.51ZM229.56 287.26C229.582 286.861 229.483 286.464 229.277 286.121C229.071 285.778 228.767 285.504 228.404 285.336C228.041 285.167 227.636 285.112 227.241 285.176C226.846 285.24 226.48 285.422 226.189 285.696C225.898 285.971 225.696 286.327 225.61 286.718C225.523 287.108 225.556 287.516 225.704 287.888C225.851 288.26 226.107 288.579 226.438 288.804C226.769 289.029 227.16 289.149 227.56 289.15C227.816 289.165 228.072 289.127 228.312 289.039C228.553 288.95 228.773 288.813 228.958 288.636C229.143 288.458 229.289 288.244 229.387 288.008C229.486 287.771 229.534 287.516 229.53 287.26H229.56Z" fill="white"/>
<path d="M232.38 282.71C232.381 282.618 232.4 282.527 232.437 282.443C232.473 282.358 232.526 282.282 232.592 282.218C232.658 282.154 232.736 282.103 232.821 282.069C232.906 282.035 232.998 282.019 233.09 282.02C233.187 282.008 233.285 282.017 233.378 282.046C233.471 282.075 233.557 282.124 233.63 282.189C233.703 282.253 233.762 282.333 233.802 282.422C233.842 282.511 233.863 282.607 233.863 282.705C233.863 282.803 233.842 282.899 233.802 282.988C233.762 283.077 233.703 283.157 233.63 283.221C233.557 283.286 233.471 283.335 233.378 283.364C233.285 283.393 233.187 283.402 233.09 283.39C232.998 283.393 232.907 283.377 232.822 283.344C232.736 283.311 232.658 283.262 232.592 283.199C232.526 283.135 232.473 283.06 232.437 282.976C232.4 282.892 232.381 282.801 232.38 282.71ZM232.57 284.51H233.62V290.31H232.57V284.51Z" fill="white"/>
<path d="M234.89 289.7L235.33 288.87C235.925 289.257 236.619 289.465 237.33 289.47C238.33 289.47 238.71 289.17 238.71 288.68C238.71 287.38 235.04 288.51 235.04 286.19C235.04 285.19 235.97 284.45 237.46 284.45C238.197 284.438 238.925 284.621 239.57 284.98L239.12 285.81C238.62 285.496 238.039 285.336 237.45 285.35C236.53 285.35 236.08 285.69 236.08 286.15C236.08 287.52 239.76 286.4 239.76 288.66C239.76 289.66 238.76 290.38 237.25 290.38C236.413 290.392 235.591 290.156 234.89 289.7Z" fill="white"/>
<path d="M244.38 290C244.016 290.278 243.568 290.423 243.11 290.41C242.863 290.438 242.613 290.411 242.378 290.33C242.144 290.248 241.93 290.116 241.754 289.941C241.577 289.766 241.442 289.554 241.358 289.32C241.274 289.087 241.244 288.837 241.27 288.59V285.4H240.27V284.54H241.27V283.27H242.27V284.54H244V285.4H242.33V288.55C242.306 288.679 242.313 288.811 242.349 288.937C242.385 289.063 242.449 289.179 242.537 289.275C242.625 289.372 242.734 289.447 242.856 289.495C242.978 289.543 243.109 289.561 243.24 289.55C243.535 289.553 243.824 289.458 244.06 289.28L244.38 290Z" fill="white"/>
<path d="M250.68 287.76H246C246.074 288.257 246.332 288.707 246.723 289.022C247.114 289.337 247.609 289.493 248.11 289.46C248.422 289.472 248.734 289.415 249.022 289.294C249.311 289.174 249.569 288.991 249.78 288.76L250.36 289.44C249.933 289.876 249.389 290.178 248.795 290.312C248.2 290.445 247.579 290.404 247.007 290.192C246.435 289.981 245.937 289.609 245.572 289.12C245.207 288.632 244.991 288.048 244.95 287.44C244.929 287.047 244.99 286.655 245.128 286.287C245.266 285.918 245.479 285.583 245.753 285.301C246.028 285.019 246.357 284.797 246.722 284.649C247.086 284.501 247.477 284.43 247.87 284.44C248.26 284.431 248.649 284.503 249.01 284.652C249.371 284.802 249.697 285.024 249.967 285.307C250.237 285.589 250.445 285.925 250.578 286.292C250.711 286.659 250.766 287.05 250.74 287.44C250.729 287.548 250.709 287.655 250.68 287.76ZM246 287H249.73C249.672 286.546 249.451 286.129 249.108 285.826C248.764 285.524 248.322 285.357 247.865 285.357C247.407 285.357 246.965 285.524 246.622 285.826C246.279 286.129 246.057 286.546 246 287Z" fill="white"/>
<path d="M255.29 284.45V285.45H255.05C254.79 285.432 254.529 285.472 254.287 285.569C254.045 285.666 253.827 285.816 253.651 286.008C253.475 286.2 253.345 286.43 253.27 286.68C253.196 286.929 253.178 287.193 253.22 287.45V290.34H252.17V284.54H253.17V285.54C253.381 285.174 253.693 284.876 254.069 284.683C254.445 284.49 254.869 284.409 255.29 284.45Z" fill="white"/>
<g opacity="0.6">
<path opacity="0.6" d="M209.59 122.61L210.04 121.67C210.816 122.321 211.797 122.675 212.81 122.67C214.26 122.67 214.88 122.11 214.88 121.38C214.88 119.38 209.8 120.62 209.8 117.51C209.8 116.21 210.8 115.11 213.01 115.11C213.962 115.095 214.899 115.351 215.71 115.85L215.31 116.85C214.623 116.41 213.825 116.175 213.01 116.17C211.58 116.17 211.01 116.77 211.01 117.5C211.01 119.5 216.1 118.26 216.1 121.35C216.1 122.63 215.1 123.73 212.85 123.73C211.665 123.755 210.509 123.358 209.59 122.61Z" fill="#263238"/>
<path opacity="0.6" d="M217.44 115.24C217.441 115.139 217.463 115.04 217.503 114.948C217.543 114.855 217.601 114.772 217.673 114.702C217.746 114.632 217.831 114.577 217.925 114.541C218.019 114.505 218.119 114.487 218.22 114.49C218.319 114.486 218.418 114.502 218.512 114.536C218.605 114.571 218.69 114.624 218.763 114.692C218.835 114.76 218.894 114.841 218.934 114.932C218.975 115.023 218.997 115.121 219 115.22C219 115.427 218.918 115.625 218.771 115.772C218.625 115.918 218.427 116 218.22 116C218.013 116 217.815 115.918 217.668 115.772C217.522 115.625 217.44 115.427 217.44 115.22V115.24ZM217.64 117.24H218.8V123.6H217.64V117.24Z" fill="#263238"/>
<path opacity="0.6" d="M227.07 117.21V122.7C227.07 124.95 225.93 125.97 223.78 125.97C222.701 126.004 221.642 125.669 220.78 125.02L221.33 124.13C222.026 124.681 222.892 124.974 223.78 124.96C225.28 124.96 225.96 124.26 225.96 122.82V122.32C225.677 122.647 225.324 122.906 224.928 123.079C224.532 123.252 224.102 123.335 223.67 123.32C223.251 123.344 222.832 123.282 222.438 123.138C222.044 122.995 221.684 122.772 221.379 122.484C221.075 122.196 220.832 121.849 220.666 121.464C220.5 121.079 220.414 120.664 220.414 120.245C220.414 119.826 220.5 119.411 220.666 119.026C220.832 118.641 221.075 118.294 221.379 118.006C221.684 117.718 222.044 117.495 222.438 117.352C222.832 117.208 223.251 117.146 223.67 117.17C224.112 117.147 224.553 117.225 224.96 117.398C225.368 117.572 225.73 117.836 226.02 118.17V117.17L227.07 117.21ZM225.95 120.21C225.972 119.773 225.862 119.339 225.635 118.965C225.408 118.591 225.075 118.293 224.677 118.11C224.279 117.927 223.836 117.868 223.404 117.94C222.972 118.011 222.572 118.211 222.254 118.512C221.937 118.814 221.717 119.203 221.623 119.631C221.53 120.058 221.566 120.504 221.728 120.911C221.89 121.317 222.17 121.666 222.532 121.912C222.895 122.158 223.322 122.289 223.76 122.29C224.046 122.315 224.334 122.28 224.606 122.187C224.878 122.094 225.127 121.946 225.338 121.751C225.549 121.556 225.717 121.319 225.831 121.055C225.945 120.792 226.002 120.507 226 120.22L225.95 120.21Z" fill="#263238"/>
<path opacity="0.6" d="M235.31 119.91V123.57H234.15V120C234.15 118.75 233.53 118.14 232.44 118.14C232.163 118.122 231.885 118.165 231.627 118.266C231.369 118.368 231.136 118.524 230.945 118.726C230.754 118.927 230.61 119.168 230.522 119.432C230.435 119.695 230.407 119.975 230.44 120.25V123.53H229.29V117.17H230.4V118.17C230.673 117.831 231.023 117.563 231.422 117.389C231.821 117.215 232.256 117.14 232.69 117.17C233.051 117.146 233.412 117.201 233.749 117.332C234.086 117.463 234.391 117.666 234.64 117.927C234.89 118.189 235.08 118.502 235.195 118.844C235.311 119.187 235.35 119.551 235.31 119.91Z" fill="#263238"/>
<path opacity="0.6" d="M246.6 117.21V123.57H245.51V122.57C245.256 122.897 244.927 123.159 244.552 123.333C244.176 123.507 243.764 123.588 243.35 123.57C242.978 123.608 242.602 123.563 242.25 123.437C241.898 123.31 241.579 123.107 241.316 122.841C241.053 122.576 240.854 122.254 240.731 121.901C240.609 121.548 240.567 121.171 240.61 120.8V117.14H241.76V120.67C241.76 121.91 242.39 122.54 243.48 122.54C243.757 122.56 244.036 122.518 244.295 122.417C244.554 122.317 244.788 122.16 244.979 121.958C245.17 121.756 245.314 121.515 245.401 121.25C245.488 120.986 245.515 120.706 245.48 120.43V117.14L246.6 117.21Z" fill="#263238"/>
<path opacity="0.6" d="M255.38 120.39C255.402 120.819 255.335 121.249 255.182 121.651C255.03 122.052 254.795 122.418 254.493 122.724C254.19 123.03 253.828 123.269 253.428 123.427C253.028 123.585 252.599 123.657 252.17 123.64C251.748 123.657 251.327 123.575 250.942 123.401C250.557 123.228 250.217 122.967 249.95 122.64V125.92H248.8V117.24H249.9V118.24C250.164 117.892 250.508 117.613 250.903 117.426C251.299 117.24 251.733 117.152 252.17 117.17C252.597 117.152 253.024 117.222 253.422 117.378C253.821 117.533 254.182 117.77 254.484 118.073C254.786 118.376 255.022 118.738 255.176 119.137C255.33 119.536 255.4 119.963 255.38 120.39ZM254.22 120.39C254.2 119.972 254.059 119.569 253.812 119.231C253.566 118.892 253.226 118.634 252.834 118.487C252.442 118.34 252.016 118.311 251.608 118.403C251.2 118.496 250.828 118.706 250.538 119.008C250.248 119.31 250.054 119.69 249.978 120.102C249.902 120.513 249.948 120.938 250.111 121.324C250.274 121.709 250.547 122.038 250.895 122.27C251.243 122.503 251.651 122.628 252.07 122.63C252.362 122.636 252.651 122.582 252.921 122.47C253.191 122.358 253.434 122.192 253.636 121.982C253.838 121.771 253.994 121.521 254.095 121.247C254.195 120.973 254.238 120.681 254.22 120.39Z" fill="#263238"/>
</g>
<path d="M297.92 170.54H167.08V192.94H297.92V170.54Z" fill="white"/>
<g opacity="0.4">
<path opacity="0.4" d="M174.24 178.09H174.92V183.92H178.51V184.51H174.24V178.09Z" fill="#263238"/>
<path opacity="0.4" d="M183.16 181.52V184.52H182.54V183.77C182.358 184.038 182.108 184.252 181.817 184.393C181.526 184.533 181.202 184.594 180.88 184.57C179.79 184.57 179.12 184 179.12 183.16C179.12 182.32 179.59 181.8 180.98 181.8H182.51V181.51C182.51 180.68 182.04 180.23 181.14 180.23C180.555 180.222 179.987 180.425 179.54 180.8L179.24 180.31C179.811 179.868 180.518 179.638 181.24 179.66C181.494 179.629 181.752 179.656 181.995 179.737C182.238 179.819 182.459 179.954 182.643 180.132C182.827 180.31 182.969 180.528 183.058 180.768C183.148 181.008 183.182 181.265 183.16 181.52ZM182.51 183.06V182.27H181C180.06 182.27 179.76 182.64 179.76 183.14C179.76 183.64 180.21 184.04 180.98 184.04C181.306 184.06 181.63 183.976 181.905 183.8C182.18 183.624 182.391 183.365 182.51 183.06Z" fill="#263238"/>
<path opacity="0.4" d="M184.26 184L184.55 183.49C185.054 183.842 185.655 184.031 186.27 184.03C187.19 184.03 187.56 183.72 187.56 183.24C187.56 181.98 184.44 182.97 184.44 181.07C184.44 180.28 185.11 179.69 186.34 179.69C186.94 179.682 187.531 179.838 188.05 180.14L187.76 180.66C187.339 180.382 186.844 180.239 186.34 180.25C185.47 180.25 185.09 180.59 185.09 181.05C185.09 182.35 188.21 181.37 188.21 183.22C188.21 184.06 187.48 184.6 186.21 184.6C185.512 184.615 184.828 184.405 184.26 184Z" fill="#263238"/>
<path opacity="0.4" d="M192 184.22C191.716 184.446 191.362 184.566 191 184.56C190.81 184.581 190.617 184.558 190.437 184.495C190.256 184.431 190.092 184.328 189.957 184.193C189.822 184.057 189.719 183.893 189.655 183.713C189.592 183.533 189.569 183.34 189.59 183.15V180.24H188.72V179.69H189.59V178.63H190.24V179.69H191.7V180.24H190.24V183.12C190.223 183.235 190.232 183.353 190.267 183.464C190.302 183.575 190.361 183.677 190.441 183.761C190.521 183.846 190.619 183.912 190.728 183.953C190.837 183.994 190.954 184.01 191.07 184C191.332 184.008 191.589 183.919 191.79 183.75L192 184.22Z" fill="#263238"/>
<path opacity="0.4" d="M201 178.09V184.51H200.44L196.32 179.3V184.51H195.64V178.09H196.2L200.33 183.3V178.09H201Z" fill="#263238"/>
<path opacity="0.4" d="M206.64 181.52V184.52H206V183.77C205.819 184.039 205.57 184.255 205.279 184.396C204.987 184.536 204.663 184.597 204.34 184.57C203.25 184.57 202.58 184 202.58 183.16C202.58 182.32 203.06 181.8 204.45 181.8H206V181.51C206 180.68 205.53 180.23 204.63 180.23C204.045 180.222 203.478 180.425 203.03 180.8L202.73 180.31C203.3 179.865 204.008 179.635 204.73 179.66C204.983 179.631 205.24 179.659 205.482 179.741C205.723 179.823 205.944 179.958 206.126 180.137C206.309 180.315 206.45 180.531 206.539 180.77C206.628 181.01 206.662 181.266 206.64 181.52ZM205.99 183.06V182.27H204.47C203.54 182.27 203.24 182.64 203.24 183.14C203.24 183.64 203.69 184.04 204.46 184.04C204.787 184.062 205.114 183.979 205.391 183.803C205.668 183.627 205.881 183.366 206 183.06H205.99Z" fill="#263238"/>
<path opacity="0.4" d="M216.37 181.71V184.51H215.72V181.78C215.72 180.78 215.2 180.24 214.33 180.24C214.104 180.23 213.879 180.269 213.67 180.354C213.461 180.44 213.273 180.57 213.12 180.736C212.967 180.901 212.851 181.099 212.782 181.314C212.713 181.529 212.692 181.756 212.72 181.98V184.51H212.07V181.78C212.07 180.78 211.55 180.24 210.67 180.24C210.444 180.23 210.219 180.269 210.01 180.354C209.801 180.44 209.613 180.57 209.46 180.736C209.307 180.901 209.191 181.099 209.122 181.314C209.053 181.529 209.032 181.756 209.06 181.98V184.51H208.41V179.69H209V180.57C209.188 180.275 209.451 180.035 209.762 179.874C210.072 179.712 210.42 179.635 210.77 179.65C211.124 179.621 211.479 179.701 211.787 179.88C212.094 180.059 212.34 180.328 212.49 180.65C212.687 180.328 212.968 180.065 213.302 179.889C213.637 179.713 214.012 179.63 214.39 179.65C214.663 179.623 214.94 179.659 215.197 179.754C215.455 179.85 215.688 180.002 215.879 180.2C216.069 180.399 216.213 180.637 216.298 180.899C216.383 181.16 216.407 181.438 216.37 181.71Z" fill="#263238"/>
<path opacity="0.4" d="M222.36 182.3H218.36C218.374 182.535 218.434 182.765 218.537 182.977C218.64 183.189 218.784 183.379 218.961 183.535C219.137 183.691 219.343 183.81 219.566 183.887C219.789 183.963 220.024 183.995 220.26 183.98C220.537 183.989 220.814 183.937 221.069 183.829C221.325 183.72 221.554 183.556 221.74 183.35L222.1 183.77C221.753 184.132 221.308 184.384 220.819 184.494C220.33 184.604 219.82 184.568 219.351 184.39C218.883 184.212 218.477 183.899 218.186 183.492C217.894 183.085 217.728 182.601 217.71 182.1C217.693 181.782 217.742 181.463 217.854 181.164C217.965 180.866 218.137 180.593 218.358 180.363C218.58 180.134 218.846 179.952 219.14 179.829C219.434 179.707 219.751 179.646 220.07 179.65C220.388 179.644 220.704 179.704 220.998 179.826C221.292 179.949 221.558 180.131 221.778 180.361C221.998 180.591 222.168 180.865 222.276 181.164C222.385 181.464 222.43 181.782 222.41 182.1C222.37 182.16 222.36 182.23 222.36 182.3ZM218.36 181.82H221.78C221.78 181.367 221.599 180.932 221.279 180.611C220.958 180.29 220.523 180.11 220.07 180.11C219.616 180.11 219.181 180.29 218.86 180.611C218.54 180.932 218.36 181.367 218.36 181.82Z" fill="#263238"/>
</g>
<path d="M297.92 139.94H167.08V162.34H297.92V139.94Z" fill="white"/>
<g opacity="0.4">
<path opacity="0.4" d="M174.92 148.08V150.6H178.24V151.19H174.92V153.91H174.24V147.49H178.64V148.08H174.92Z" fill="#263238"/>
<path opacity="0.4" d="M179.67 147.56C179.668 147.464 179.695 147.37 179.747 147.29C179.798 147.209 179.873 147.146 179.961 147.109C180.05 147.071 180.147 147.061 180.241 147.079C180.335 147.097 180.421 147.143 180.489 147.211C180.557 147.279 180.603 147.365 180.621 147.459C180.639 147.553 180.629 147.65 180.591 147.738C180.554 147.827 180.491 147.901 180.41 147.953C180.33 148.005 180.236 148.032 180.14 148.03C180.015 148.03 179.896 147.981 179.807 147.892C179.719 147.804 179.67 147.685 179.67 147.56ZM179.81 149.09H180.46V153.91H179.81V149.09Z" fill="#263238"/>
<path opacity="0.4" d="M184.71 149.05V149.68H184.55C184.32 149.669 184.091 149.709 183.878 149.797C183.666 149.884 183.475 150.018 183.32 150.188C183.165 150.358 183.05 150.561 182.983 150.78C182.915 151 182.897 151.232 182.93 151.46V153.92H182.28V149.1H182.9V150C183.073 149.68 183.337 149.418 183.66 149.249C183.982 149.08 184.348 149.01 184.71 149.05Z" fill="#263238"/>
<path opacity="0.4" d="M185.25 153.36L185.54 152.84C186.04 153.202 186.642 153.395 187.26 153.39C188.18 153.39 188.55 153.07 188.55 152.6C188.55 151.34 185.43 152.33 185.43 150.42C185.43 149.64 186.1 149.05 187.33 149.05C187.931 149.037 188.523 149.193 189.04 149.5L188.75 150.02C188.329 149.742 187.834 149.599 187.33 149.61C186.46 149.61 186.08 149.95 186.08 150.41C186.08 151.71 189.2 150.73 189.2 152.58C189.2 153.41 188.47 153.95 187.2 153.95C186.503 153.968 185.819 153.761 185.25 153.36Z" fill="#263238"/>
<path opacity="0.4" d="M193 153.62C192.712 153.838 192.361 153.955 192 153.95C191.81 153.972 191.618 153.951 191.437 153.889C191.257 153.827 191.093 153.724 190.957 153.59C190.822 153.455 190.718 153.292 190.655 153.112C190.591 152.932 190.569 152.74 190.59 152.55V149.64H189.72V149.09H190.59V148H191.24V149.06H192.7V149.61H191.24V152.48C191.223 152.596 191.232 152.714 191.267 152.825C191.302 152.937 191.362 153.039 191.441 153.124C191.521 153.21 191.619 153.276 191.727 153.319C191.836 153.361 191.953 153.379 192.07 153.37C192.332 153.374 192.586 153.285 192.79 153.12L193 153.62Z" fill="#263238"/>
<path opacity="0.4" d="M202 147.49V153.91H201.44L197.32 148.7V153.91H196.64V147.49H197.2L201.33 152.7V147.49H202Z" fill="#263238"/>
<path opacity="0.4" d="M207.63 150.92V153.92H207V153.17C206.821 153.437 206.573 153.651 206.283 153.79C205.992 153.929 205.67 153.988 205.35 153.96C204.25 153.96 203.58 153.4 203.58 152.56C203.58 151.72 204.06 151.2 205.45 151.2H207V150.9C207 150.08 206.53 149.63 205.63 149.63C205.045 149.622 204.478 149.825 204.03 150.2L203.73 149.71C204.3 149.266 205.008 149.036 205.73 149.06C205.983 149.031 206.24 149.058 206.481 149.141C206.722 149.223 206.942 149.358 207.124 149.537C207.306 149.715 207.446 149.932 207.533 150.171C207.621 150.41 207.654 150.666 207.63 150.92ZM206.98 152.46V151.67H205.46C204.53 151.67 204.23 152.04 204.23 152.53C204.23 153.02 204.68 153.44 205.45 153.44C205.779 153.463 206.107 153.38 206.385 153.204C206.664 153.028 206.879 152.767 207 152.46H206.98Z" fill="#263238"/>
<path opacity="0.4" d="M217.36 151.11V153.91H216.71V151.18C216.71 150.18 216.19 149.64 215.32 149.64C215.094 149.63 214.869 149.669 214.66 149.754C214.451 149.84 214.263 149.97 214.11 150.136C213.957 150.301 213.841 150.499 213.772 150.714C213.703 150.929 213.682 151.156 213.71 151.38V153.91H213.06V151.18C213.06 150.18 212.54 149.64 211.66 149.64C211.434 149.63 211.209 149.669 211 149.754C210.791 149.84 210.603 149.97 210.45 150.136C210.297 150.301 210.181 150.499 210.112 150.714C210.043 150.929 210.022 151.156 210.05 151.38V153.91H209.4V149.09H210V150C210.188 149.705 210.451 149.465 210.762 149.304C211.072 149.142 211.42 149.065 211.77 149.08C212.124 149.051 212.479 149.131 212.787 149.31C213.094 149.489 213.34 149.758 213.49 150.08C213.685 149.756 213.966 149.492 214.301 149.316C214.635 149.14 215.012 149.058 215.39 149.08C215.66 149.056 215.932 149.092 216.186 149.186C216.44 149.281 216.67 149.431 216.859 149.625C217.048 149.82 217.191 150.054 217.277 150.311C217.364 150.568 217.392 150.841 217.36 151.11Z" fill="#263238"/>
<path opacity="0.4" d="M223.35 151.7H219.35C219.364 151.935 219.424 152.165 219.527 152.377C219.63 152.589 219.774 152.779 219.951 152.935C220.127 153.091 220.333 153.21 220.556 153.287C220.779 153.363 221.014 153.395 221.25 153.38C221.528 153.389 221.805 153.337 222.061 153.226C222.317 153.115 222.545 152.949 222.73 152.74L223.09 153.17C222.743 153.532 222.298 153.784 221.809 153.894C221.32 154.004 220.81 153.968 220.341 153.79C219.873 153.612 219.467 153.299 219.176 152.892C218.884 152.485 218.718 152.001 218.7 151.5C218.683 151.182 218.732 150.863 218.844 150.564C218.955 150.266 219.127 149.993 219.348 149.763C219.57 149.534 219.836 149.352 220.13 149.229C220.424 149.107 220.741 149.046 221.06 149.05C221.378 149.044 221.694 149.104 221.988 149.226C222.282 149.349 222.548 149.531 222.768 149.761C222.988 149.991 223.158 150.265 223.266 150.564C223.375 150.864 223.42 151.182 223.4 151.5C223.36 151.55 223.35 151.62 223.35 151.7ZM219.35 151.21H222.77C222.77 150.757 222.589 150.322 222.269 150.001C221.948 149.68 221.513 149.5 221.06 149.5C220.606 149.5 220.171 149.68 219.85 150.001C219.53 150.322 219.35 150.757 219.35 151.21Z" fill="#263238"/>
</g>
<path d="M117.85 330.28H116.9C116.9 328.87 118.07 295.83 123.82 290.28C129.73 284.53 136.68 290.2 136.74 290.28L136.14 291C135.88 290.79 129.77 285.83 124.47 291C119 296.21 117.86 329.94 117.85 330.28Z" fill="#58A4BD"/>
<path d="M117.37 336.91L116.43 336.82C116.43 336.42 120.15 296.7 105.76 280.18L106.47 279.56C121.13 296.39 117.41 336.51 117.37 336.91Z" fill="#58A4BD"/>
<path d="M117.83 332.67C117.71 330.79 114.94 286.67 126 276.47L126.64 277.17C115.91 287.03 118.74 332.17 118.77 332.6L117.83 332.67Z" fill="#58A4BD"/>
<path d="M116.43 332.64C116.43 332.34 116.09 302.64 108.22 298.17C107.551 297.729 106.785 297.455 105.988 297.371C105.191 297.288 104.386 297.397 103.64 297.69C99.0296 299.6 96.5797 308.4 96.5497 308.49L95.6396 308.24C95.7396 307.86 98.2396 298.91 103.28 296.82C104.158 296.467 105.108 296.331 106.049 296.424C106.991 296.516 107.897 296.834 108.69 297.35C117.02 302.12 117.37 331.35 117.38 332.63L116.43 332.64Z" fill="#58A4BD"/>
<path d="M119.67 332.66C119.61 331.66 118.4 309.22 124.77 300.89C126.47 298.68 128.35 297.63 130.39 297.78C134.92 298.09 138.39 304.23 138.58 304.49L137.76 304.96C137.76 304.9 134.34 298.96 130.32 298.72C128.63 298.59 127.01 299.52 125.52 301.47C119.36 309.47 120.6 332.38 120.61 332.61L119.67 332.66Z" fill="#58A4BD"/>
<path d="M118.4 335.77L117.46 335.7C117.46 335.16 121.46 281.58 114.86 272.64L115.62 272.08C122.44 281.3 118.57 333.55 118.4 335.77Z" fill="#58A4BD"/>
<path d="M101.45 302.15C101.45 302.15 105.53 303.66 104.32 307.21C103.11 310.76 90.1897 316.61 90.1897 316.61C90.1897 316.61 84.7797 311.66 89.7497 303.61C94.7197 295.56 101.34 299.61 101.45 302.15Z" fill="#58A4BD"/>
<path opacity="0.2" d="M101.45 302.15C101.45 302.15 105.53 303.66 104.32 307.21C103.11 310.76 90.1897 316.61 90.1897 316.61C90.1897 316.61 84.7797 311.66 89.7497 303.61C94.7197 295.56 101.34 299.61 101.45 302.15Z" fill="black"/>
<path d="M119.2 295.39C119.2 295.39 114.85 295.21 114.6 298.95C114.35 302.69 124 313.07 124 313.07C124 313.07 130.9 310.57 129.42 301.22C127.94 291.87 120.28 293.08 119.2 295.39Z" fill="#58A4BD"/>
<path opacity="0.2" d="M119.2 295.39C119.2 295.39 114.85 295.21 114.6 298.95C114.35 302.69 124 313.07 124 313.07C124 313.07 130.9 310.57 129.42 301.22C127.94 291.87 120.28 293.08 119.2 295.39Z" fill="black"/>
<path d="M122.88 277.45C122.88 277.45 119.98 277.14 120.21 275.38C120.44 273.62 131.48 269.07 137.99 276.38C137.99 276.38 133.82 283.54 127.8 283.64C121.78 283.74 122.88 277.45 122.88 277.45Z" fill="#58A4BD"/>
<path opacity="0.2" d="M122.88 277.45C122.88 277.45 119.98 277.14 120.21 275.38C120.44 273.62 131.48 269.07 137.99 276.38C137.99 276.38 133.82 283.54 127.8 283.64C121.78 283.74 122.88 277.45 122.88 277.45Z" fill="black"/>
<path d="M117.48 273.16C117.48 273.16 120.1 274.43 120.84 272.81C121.58 271.19 114.61 261.5 105.2 264.29C105.2 264.29 104.95 272.57 110.01 275.84C115.07 279.11 117.48 273.16 117.48 273.16Z" fill="#58A4BD"/>
<path opacity="0.2" d="M117.48 273.16C117.48 273.16 120.1 274.43 120.84 272.81C121.58 271.19 114.61 261.5 105.2 264.29C105.2 264.29 104.95 272.57 110.01 275.84C115.07 279.11 117.48 273.16 117.48 273.16Z" fill="black"/>
<path d="M131.2 300.73C131.2 300.73 129.2 299.11 131.36 298.32C133.52 297.53 144.11 297.76 144.22 308.25C144.22 308.25 131.88 310.3 130.36 306.3C128.84 302.3 131.2 300.73 131.2 300.73Z" fill="#58A4BD"/>
<path opacity="0.2" d="M131.2 300.73C131.2 300.73 129.2 299.11 131.36 298.32C133.52 297.53 144.11 297.76 144.22 308.25C144.22 308.25 131.88 310.3 130.36 306.3C128.84 302.3 131.2 300.73 131.2 300.73Z" fill="black"/>
<path d="M106 277.19C106 277.19 108 275.57 105.84 274.79C103.68 274.01 93.0897 274.22 92.9797 284.71C92.9797 284.71 105.32 286.77 106.84 282.77C108.36 278.77 106 277.19 106 277.19Z" fill="#58A4BD"/>
<path opacity="0.2" d="M106 277.19C106 277.19 108 275.57 105.84 274.79C103.68 274.01 93.0897 274.22 92.9797 284.71C92.9797 284.71 105.32 286.77 106.84 282.77C108.36 278.77 106 277.19 106 277.19Z" fill="black"/>
<path d="M112.56 285.64C112.56 285.64 112.74 283.64 111.15 284.45C109.56 285.26 104.05 291.18 109.77 296.83C109.77 296.83 117.48 291.12 116.09 288.15C114.7 285.18 112.56 285.64 112.56 285.64Z" fill="#58A4BD"/>
<path opacity="0.2" d="M112.56 285.64C112.56 285.64 112.74 283.64 111.15 284.45C109.56 285.26 104.05 291.18 109.77 296.83C109.77 296.83 117.48 291.12 116.09 288.15C114.7 285.18 112.56 285.64 112.56 285.64Z" fill="black"/>
<path d="M133 288.44C133 288.44 131.8 286.87 133.56 286.68C135.32 286.49 143.16 288.58 141.33 296.42C141.33 296.42 131.77 295.7 131.33 292.42C130.89 289.14 133 288.44 133 288.44Z" fill="#58A4BD"/>
<path opacity="0.2" d="M133 288.44C133 288.44 131.8 286.87 133.56 286.68C135.32 286.49 143.16 288.58 141.33 296.42C141.33 296.42 131.77 295.7 131.33 292.42C130.89 289.14 133 288.44 133 288.44Z" fill="black"/>
<path d="M102.16 361.72H133.07L137.18 331.66H98.0498L102.16 361.72Z" fill="#263238"/>
<path opacity="0.2" d="M102.16 361.72H133.07L137.18 331.66H98.0498L102.16 361.72Z" fill="white"/>
<path d="M141.06 329.22V332.08C141.06 332.998 140.695 333.878 140.046 334.527C139.398 335.175 138.517 335.54 137.6 335.54H97.2498C96.3321 335.54 95.4521 335.175 94.8032 334.527C94.1543 333.878 93.7898 332.998 93.7898 332.08V329.22H141.06Z" fill="#263238"/>
<path d="M398.62 44.31H369.89C367.545 44.31 365.297 45.2414 363.639 46.8992C361.981 48.557 361.05 50.8055 361.05 53.15V78.15C361.048 79.3117 361.276 80.4623 361.72 81.536C362.164 82.6097 362.814 83.5854 363.635 84.4073C364.456 85.2292 365.431 85.8813 366.505 86.3262C367.578 86.771 368.728 87 369.89 87H378.28L376.28 94.89L384.28 87H398.67C401.017 87 403.268 86.0676 404.928 84.4079C406.587 82.7482 407.52 80.4972 407.52 78.15V53.15C407.52 51.9841 407.289 50.8296 406.841 49.7532C406.393 48.6767 405.737 47.6995 404.909 46.8779C404.082 46.0562 403.101 45.4063 402.021 44.9656C400.942 44.5249 399.786 44.3021 398.62 44.31Z" fill="#58A4BD"/>
<path opacity="0.7" d="M398.62 44.31H369.89C367.545 44.31 365.297 45.2414 363.639 46.8992C361.981 48.557 361.05 50.8055 361.05 53.15V78.15C361.048 79.3117 361.276 80.4623 361.72 81.536C362.164 82.6097 362.814 83.5854 363.635 84.4073C364.456 85.2292 365.431 85.8813 366.505 86.3262C367.578 86.771 368.728 87 369.89 87H378.28L376.28 94.89L384.28 87H398.67C401.017 87 403.268 86.0676 404.928 84.4079C406.587 82.7482 407.52 80.4972 407.52 78.15V53.15C407.52 51.9841 407.289 50.8296 406.841 49.7532C406.393 48.6767 405.737 47.6995 404.909 46.8779C404.082 46.0562 403.101 45.4063 402.021 44.9656C400.942 44.5249 399.786 44.3021 398.62 44.31Z" fill="white"/>
<path d="M384.26 76.7C390.418 76.7 395.41 71.708 395.41 65.55C395.41 59.3921 390.418 54.4 384.26 54.4C378.102 54.4 373.11 59.3921 373.11 65.55C373.11 71.708 378.102 76.7 384.26 76.7Z" fill="white"/>
<path d="M384.26 51.29C381.439 51.29 378.682 52.1264 376.337 53.6933C373.992 55.2602 372.165 57.4873 371.085 60.093C370.006 62.6987 369.724 65.5659 370.274 68.332C370.824 71.0982 372.182 73.6391 374.176 75.6334C376.171 77.6277 378.712 78.9858 381.478 79.536C384.244 80.0863 387.111 79.8039 389.717 78.7246C392.323 77.6453 394.55 75.8175 396.117 73.4725C397.683 71.1274 398.52 68.3704 398.52 65.55C398.521 63.677 398.153 61.8221 397.437 60.0914C396.721 58.3607 395.67 56.7882 394.346 55.4638C393.022 54.1393 391.449 53.089 389.718 52.3728C387.988 51.6567 386.133 51.2887 384.26 51.29ZM392.35 61.29L383.76 71.41C383.638 71.5563 383.485 71.6734 383.312 71.753C383.139 71.8326 382.95 71.8726 382.76 71.87C382.57 71.8712 382.381 71.8306 382.209 71.7511C382.036 71.6716 381.883 71.5552 381.76 71.41L376.17 64.82C376.052 64.6897 375.961 64.537 375.903 64.3709C375.845 64.2048 375.822 64.0288 375.833 63.8533C375.845 63.6778 375.892 63.5065 375.971 63.3495C376.05 63.1925 376.161 63.0531 376.295 62.9396C376.429 62.8261 376.585 62.7408 376.753 62.6888C376.921 62.6368 377.098 62.6192 377.273 62.637C377.448 62.6547 377.617 62.7075 377.771 62.7922C377.926 62.877 378.061 62.9918 378.17 63.13L382.76 68.54L390.35 59.6C390.578 59.3485 390.895 59.1953 391.233 59.1727C391.572 59.1502 391.907 59.2601 392.166 59.4792C392.425 59.6984 392.589 60.0097 392.624 60.3475C392.658 60.6853 392.56 61.0232 392.35 61.29Z" fill="#58A4BD"/>
<path d="M393.64 198.56C393.64 198.56 376.23 196.36 349.85 203.56C349.85 203.56 345.61 156.42 346.11 149.94C346.61 143.46 386.84 145.36 386.84 145.36C386.84 145.36 387.84 164.23 390.46 175.61C393.08 186.99 395 196.37 393.64 198.56Z" fill="#58A4BD"/>
<path opacity="0.2" d="M393.64 198.56C393.64 198.56 376.23 196.36 349.85 203.56C349.85 203.56 345.61 156.42 346.11 149.94C346.61 143.46 386.84 145.36 386.84 145.36C386.84 145.36 387.84 164.23 390.46 175.61C393.08 186.99 395 196.37 393.64 198.56Z" fill="black"/>
<path d="M337.13 354.62L344.23 356.63L345.92 345.58L346.83 339.67L339.73 337.66L338.52 345.58L337.13 354.62Z" fill="#E4897B"/>
<path d="M377.95 355.2L385.27 356.17L385.34 345.58L385.39 339L378.06 338.04L378.01 345.58L377.95 355.2Z" fill="#E4897B"/>
<path opacity="0.2" d="M378.06 338.04L378.01 345.58H385.34L385.39 339L378.06 338.04Z" fill="black"/>
<path opacity="0.2" d="M338.52 345.58H345.92L346.83 339.67L339.73 337.66L338.52 345.58Z" fill="black"/>
<path d="M305.61 153.81L298.56 151.73L299.85 159.78C299.85 159.78 306.25 161.25 306.85 157.92L305.61 153.81Z" fill="#E4897B"/>
<path d="M291.52 153.6L294.98 160.14L299.85 159.78L298.56 151.73L291.52 153.6Z" fill="#E4897B"/>
<path d="M315.34 155.87L303.76 153.28L302.71 158.9L313.22 161.46L315.34 155.87Z" fill="#E4897B"/>
<path d="M350.37 150.79L349.69 151.6C348.23 153.31 344.69 157.44 341 161C338 163.9 335 166.43 333 166.94C327.33 168.4 306.72 162.33 306.72 162.33L308.85 153.97C308.85 153.97 328.05 156.52 329.54 156.52C330.67 156.52 342.35 139.6 345.18 138.21L350.37 150.79Z" fill="#58A4BD"/>
<path opacity="0.2" d="M349.69 151.6C348.23 153.31 344.69 157.44 341 161C341.74 155.14 343.89 149.76 346.72 146.36C346.984 146.032 347.286 145.736 347.62 145.48L349.69 151.6Z" fill="black"/>
<path d="M337.22 353.51L345.28 353.3C345.425 353.295 345.568 353.34 345.684 353.428C345.801 353.515 345.884 353.639 345.92 353.78L347.62 360.27C347.661 360.425 347.666 360.588 347.635 360.746C347.604 360.903 347.538 361.052 347.442 361.181C347.346 361.309 347.222 361.415 347.08 361.489C346.938 361.563 346.781 361.605 346.62 361.61C343.71 361.61 339.5 361.61 335.85 361.68C331.57 361.8 328.85 361.59 323.85 361.68C320.85 361.76 319.85 358.74 321.13 358.43C326.86 357.01 330.61 357.29 335.49 354.09C336.005 353.747 336.602 353.547 337.22 353.51Z" fill="#263238"/>
<path d="M336.52 354.55C335.34 354.81 333.24 355.16 332.4 354.47C332.278 354.369 332.181 354.24 332.118 354.094C332.056 353.948 332.029 353.789 332.04 353.63C332.04 353.535 332.064 353.441 332.112 353.359C332.159 353.276 332.228 353.208 332.31 353.16C333.2 352.63 336.21 354.06 336.56 354.22C336.591 354.237 336.616 354.261 336.634 354.291C336.651 354.321 336.661 354.355 336.66 354.39C336.658 354.429 336.644 354.466 336.618 354.495C336.593 354.524 336.558 354.543 336.52 354.55ZM332.52 353.44H332.46C332.427 353.459 332.399 353.487 332.38 353.52C332.36 353.554 332.35 353.592 332.35 353.63C332.342 353.733 332.358 353.837 332.398 353.933C332.438 354.029 332.501 354.113 332.58 354.18C333.05 354.57 334.27 354.61 335.89 354.29C334.72 353.8 333.09 353.23 332.54 353.44H332.52Z" fill="#58A4BD"/>
<path d="M336.52 354.55H336.4C335.49 354.17 333.67 352.63 333.77 351.8C333.77 351.6 333.93 351.35 334.41 351.29C334.586 351.267 334.765 351.279 334.937 351.325C335.109 351.372 335.269 351.451 335.41 351.56C336.41 352.31 336.64 354.28 336.66 354.36C336.663 354.39 336.658 354.421 336.646 354.449C336.634 354.477 336.614 354.502 336.59 354.52L336.52 354.55ZM334.28 351.68C334.13 351.73 334.12 351.81 334.12 351.84C334.06 352.34 335.3 353.56 336.23 354.08C336.123 353.24 335.752 352.456 335.17 351.84C335.071 351.757 334.956 351.696 334.832 351.662C334.708 351.627 334.577 351.62 334.45 351.64C334.392 351.645 334.335 351.659 334.28 351.68Z" fill="#58A4BD"/>
<path d="M378.24 353.51L386.3 353.3C386.447 353.295 386.591 353.34 386.709 353.427C386.827 353.514 386.912 353.638 386.95 353.78L388.64 360.27C388.683 360.425 388.689 360.589 388.659 360.747C388.629 360.905 388.564 361.055 388.467 361.184C388.371 361.313 388.246 361.419 388.103 361.493C387.96 361.566 387.801 361.607 387.64 361.61C384.73 361.61 380.52 361.61 376.86 361.68C372.59 361.8 369.86 361.59 364.86 361.68C361.86 361.76 360.86 358.74 362.14 358.43C367.87 357.01 371.61 357.29 376.49 354.09C377.011 353.743 377.615 353.543 378.24 353.51Z" fill="#263238"/>
<path d="M377.55 354.55C376.37 354.81 374.26 355.16 373.43 354.47C373.308 354.369 373.211 354.24 373.148 354.094C373.086 353.948 373.059 353.789 373.07 353.63C373.07 353.535 373.094 353.441 373.142 353.359C373.189 353.276 373.258 353.208 373.34 353.16C374.22 352.63 377.24 354.06 377.58 354.22C377.613 354.233 377.641 354.257 377.659 354.288C377.677 354.319 377.685 354.355 377.68 354.39C377.677 354.427 377.663 354.462 377.64 354.491C377.617 354.519 377.585 354.54 377.55 354.55ZM373.55 353.44H373.49C373.457 353.459 373.43 353.487 373.412 353.521C373.395 353.554 373.387 353.592 373.39 353.63C373.38 353.734 373.396 353.838 373.436 353.934C373.476 354.03 373.539 354.114 373.62 354.18C374.09 354.57 375.3 354.61 376.93 354.29C375.74 353.8 374.11 353.23 373.56 353.44H373.55Z" fill="#58A4BD"/>
<path d="M377.55 354.55H377.42C376.52 354.17 374.69 352.63 374.8 351.8C374.8 351.6 374.95 351.35 375.43 351.29C375.606 351.266 375.786 351.277 375.958 351.324C376.129 351.37 376.29 351.45 376.43 351.56C377.13 352.339 377.567 353.319 377.68 354.36C377.685 354.391 377.681 354.422 377.669 354.45C377.657 354.479 377.636 354.503 377.61 354.52L377.55 354.55ZM375.3 351.68C375.16 351.73 375.15 351.81 375.15 351.84C375.08 352.34 376.33 353.56 377.26 354.08C377.146 353.242 376.776 352.46 376.2 351.84C376.101 351.758 375.986 351.697 375.862 351.663C375.738 351.628 375.608 351.621 375.48 351.64L375.3 351.68Z" fill="#58A4BD"/>
<path d="M393.05 194.26C396.93 211.07 390.27 343.32 390.27 343.32H377.41L371.91 233.11L351.66 343.32L337.91 342.32C346.91 256.94 354.84 205.97 354.84 205.97V199.53L393.05 194.26Z" fill="#263238"/>
<path opacity="0.4" d="M337.91 342.32L351.66 343.32L367.6 256.56L371.91 233.11L377.41 343.32H390.27C390.27 343.32 396.93 211.07 393.05 194.26L354.82 199.53V205.97C354.82 205.97 346.9 256.94 337.91 342.32Z" fill="white"/>
<path d="M386.12 132C385.726 140.037 385.93 148.093 386.73 156.1C387.27 161.7 388.01 166.99 388.8 171.76C390.65 182.95 392.75 191.34 393.05 194.27L354.82 199.54C340.88 160.54 346.13 137.88 346.13 137.88C348.989 136.7 351.918 135.698 354.9 134.88C355.53 134.71 356.17 134.55 356.83 134.4C362.2 133.343 367.625 132.596 373.08 132.16C374.08 132.07 375.17 132 376.19 131.95C381.41 131.69 386.12 132 386.12 132Z" fill="#263238"/>
<path d="M365.66 114.45C365.94 119.8 366.51 129.84 370.96 132.39C370.96 132.39 368.19 137.66 362.2 138.2C357.67 138.6 357.97 134.13 357.97 134.13C360.59 132.18 359.97 128.87 357.97 125.13L365.66 114.45Z" fill="#E4897B"/>
<path opacity="0.2" d="M362.52 118.81L358 125.13C358.476 125.994 358.877 126.898 359.2 127.83C361.3 126.99 363.71 123.83 363.36 121.54C363.25 120.586 362.966 119.661 362.52 118.81Z" fill="black"/>
<path d="M346.16 103.68C345.29 106.46 345.77 112.16 349.64 110.31C353.51 108.46 347.66 98.91 346.16 103.68Z" fill="#263238"/>
<path d="M366.16 107.44C366.59 114.57 367.16 118.72 364.05 122.76C359.32 128.83 350.16 126.57 347.6 119.69C345.3 113.49 344.99 102.87 351.6 99.27C353.065 98.4728 354.709 98.0604 356.377 98.0713C358.045 98.0822 359.683 98.5161 361.137 99.3323C362.592 100.149 363.816 101.32 364.694 102.738C365.573 104.156 366.077 105.774 366.16 107.44Z" fill="#E4897B"/>
<path d="M361.16 103.56V95.56C361.16 95.56 369.64 94.93 369.26 99.27C373.96 101.6 371.74 108.91 365.43 112.49C361.97 109.72 362.37 103.06 362.37 103.06C362 103.25 361.58 103.41 361.16 103.56Z" fill="#263238"/>
<path d="M369.61 113C369.446 113.872 369.11 114.703 368.621 115.443C368.131 116.183 367.499 116.818 366.76 117.31C364.76 118.62 363.03 117.01 362.96 114.76C362.9 112.76 363.85 109.6 366.15 109.2C366.653 109.122 367.168 109.169 367.648 109.338C368.128 109.508 368.559 109.793 368.902 110.17C369.245 110.546 369.489 111.002 369.612 111.496C369.736 111.99 369.735 112.506 369.61 113Z" fill="#E4897B"/>
<path d="M355.63 110.62C355.7 111.2 355.45 111.7 355.07 111.74C354.69 111.78 354.33 111.35 354.26 110.74C354.19 110.13 354.44 109.66 354.81 109.62C355.18 109.58 355.56 110 355.63 110.62Z" fill="#263238"/>
<path d="M349.09 111.35C349.16 111.93 348.91 112.43 348.53 112.47C348.15 112.51 347.79 112.08 347.72 111.47C347.65 110.86 347.9 110.39 348.28 110.35C348.66 110.31 349 110.77 349.09 111.35Z" fill="#263238"/>
<path d="M351.2 111.4C350.695 113.188 349.944 114.898 348.97 116.48C349.401 116.702 349.875 116.83 350.359 116.855C350.843 116.881 351.327 116.805 351.78 116.63L351.2 111.4Z" fill="#DE5753"/>
<path d="M355.15 118.49C354.903 118.553 354.653 118.6 354.4 118.63C354.355 118.63 354.312 118.612 354.28 118.58C354.248 118.548 354.23 118.505 354.23 118.46C354.23 118.415 354.248 118.372 354.28 118.34C354.312 118.308 354.355 118.29 354.4 118.29C355.118 118.225 355.811 117.992 356.422 117.61C357.034 117.227 357.547 116.707 357.92 116.09C357.929 116.07 357.941 116.052 357.957 116.036C357.973 116.021 357.992 116.01 358.013 116.002C358.033 115.995 358.055 115.992 358.077 115.993C358.099 115.994 358.12 116 358.14 116.01C358.161 116.02 358.179 116.033 358.194 116.05C358.209 116.067 358.221 116.087 358.228 116.108C358.236 116.13 358.239 116.152 358.238 116.175C358.236 116.198 358.23 116.22 358.22 116.24C357.893 116.808 357.451 117.302 356.922 117.689C356.394 118.076 355.79 118.349 355.15 118.49Z" fill="#263238"/>
<path d="M357.39 108.29C357.329 108.304 357.266 108.302 357.207 108.285C357.147 108.267 357.093 108.235 357.05 108.19C356.76 107.873 356.401 107.627 356 107.473C355.599 107.318 355.168 107.259 354.74 107.3C354.696 107.31 354.65 107.311 354.606 107.303C354.561 107.295 354.519 107.277 354.481 107.252C354.444 107.227 354.412 107.194 354.388 107.156C354.363 107.118 354.347 107.075 354.34 107.03C354.331 106.986 354.331 106.941 354.34 106.897C354.349 106.853 354.367 106.811 354.392 106.774C354.417 106.737 354.449 106.705 354.486 106.68C354.524 106.655 354.566 106.638 354.61 106.63C355.15 106.566 355.697 106.631 356.207 106.821C356.716 107.01 357.173 107.319 357.54 107.72C357.573 107.751 357.599 107.788 357.616 107.829C357.634 107.871 357.643 107.915 357.643 107.96C357.643 108.005 357.634 108.049 357.616 108.091C357.599 108.132 357.573 108.169 357.54 108.2C357.497 108.241 357.446 108.271 357.39 108.29Z" fill="#263238"/>
<path d="M346 109.42C345.936 109.445 345.864 109.445 345.8 109.42C345.715 109.39 345.646 109.329 345.607 109.248C345.567 109.168 345.561 109.075 345.59 108.99C345.755 108.475 346.042 108.008 346.427 107.629C346.812 107.249 347.283 106.968 347.8 106.81C347.887 106.787 347.98 106.801 348.058 106.847C348.136 106.893 348.192 106.967 348.215 107.055C348.238 107.143 348.224 107.235 348.178 107.313C348.132 107.391 348.057 107.447 347.97 107.47C347.561 107.596 347.189 107.821 346.888 108.124C346.586 108.427 346.364 108.8 346.24 109.21C346.221 109.262 346.189 109.309 346.147 109.346C346.105 109.383 346.054 109.408 346 109.42Z" fill="#263238"/>
<path d="M364.92 106.52C364.92 106.52 359.92 104.69 357.64 101.79C357.64 101.79 353.1 102.98 352.17 104.79C351.746 104.427 351.471 103.919 351.399 103.365C351.327 102.811 351.463 102.25 351.78 101.79C351.78 101.79 348.38 102.51 347.71 104.79C347.158 104.527 346.704 104.094 346.416 103.554C346.128 103.014 346.021 102.395 346.11 101.79C346.11 101.79 344.6 102.36 344.11 104.79C344.11 104.79 340.36 96.97 352.75 94.73C351.813 94.4119 350.83 94.2464 349.84 94.24C349.84 94.24 358.49 90.75 365.34 93.94C372.19 97.13 371 103.31 364.92 106.52Z" fill="#263238"/>
<path d="M396 201L384 202.6C384 202.6 379.05 168.01 376.87 156.84V133L383.14 131.35L388 133C389.333 137.796 390.358 142.673 391.07 147.6C391.66 151.34 392.19 155.34 392.66 159.39C393.31 164.91 393.85 170.53 394.31 175.79C395.03 184.28 395.51 191.79 395.77 196.38C395.92 199.26 396 201 396 201Z" fill="#58A4BD"/>
<path d="M376.88 156.82C376.88 156.82 377.88 139.99 383.15 131.31C383.15 131.31 383.02 128.83 381.97 128.43C380.92 128.03 376.88 130.43 376.88 130.43C376.88 130.43 374.37 128.71 373.82 129.51C373.27 130.31 371.93 135.63 376.88 156.82Z" fill="#58A4BD"/>
<path opacity="0.7" d="M376.88 156.82C376.88 156.82 377.88 139.99 383.15 131.31C383.15 131.31 383.02 128.83 381.97 128.43C380.92 128.03 376.88 130.43 376.88 130.43C376.88 130.43 374.37 128.71 373.82 129.51C373.27 130.31 371.93 135.63 376.88 156.82Z" fill="white"/>
<path d="M349.6 205.61L350.97 206.61C350.97 206.61 348.97 195.46 349.79 167.26C349.79 165.9 349.88 164.59 349.93 163.34C350.93 139.48 354.65 135.14 354.93 134.88L351.47 136.06L345.2 138.22C343.31 158.57 349.6 205.61 349.6 205.61Z" fill="#58A4BD"/>
<path d="M350.14 159.23C350.14 159.23 346.68 142.87 347.71 137.23C348.74 131.59 352.43 134.1 352.43 134.1C352.43 134.1 355.82 131.36 356.83 134.38C356.83 134.38 352.17 137.66 350.14 159.23Z" fill="#58A4BD"/>
<path opacity="0.7" d="M350.14 159.23C350.14 159.23 346.68 142.87 347.71 137.23C348.74 131.59 352.43 134.1 352.43 134.1C352.43 134.1 355.82 131.36 356.83 134.38C356.83 134.38 352.17 137.66 350.14 159.23Z" fill="white"/>
<path opacity="0.2" d="M392.64 159.35C387.52 156.48 386.84 148.99 386.84 148.99C387.15 148.87 389.05 148.22 391.05 147.56C391.64 151.3 392.17 155.3 392.64 159.35Z" fill="black"/>
<path opacity="0.2" d="M367.6 256.56L371.91 233.11L371.08 220.7C371.08 220.7 365.17 242.22 367.6 256.56Z" fill="black"/>
<path opacity="0.2" d="M395.75 196.34C392.53 196.12 389.75 195.91 389.75 195.91L389.14 182.82C390.144 182.192 391.349 181.97 392.51 182.2C393.301 180.109 393.901 177.95 394.3 175.75C395 184.24 395.49 191.76 395.75 196.34Z" fill="black"/>
<path d="M396.85 175.74L390.58 185.81L395.54 188.66L401.43 179.59L396.85 175.74Z" fill="#E4897B"/>
<path d="M387.73 132.84C391.95 133.3 409.89 157.92 410.68 165.34C411.47 172.76 400.14 185.57 400.14 185.57L392.58 181.12C392.58 181.12 400.26 169.31 400.66 166.12C401.06 162.93 386.61 150.04 386.61 150.04C385.517 147.071 384.916 143.943 384.83 140.78C384.63 135.36 387.73 132.84 387.73 132.84Z" fill="#58A4BD"/>
<path d="M389.13 182.83C389.13 182.83 395.58 184.21 398.18 188.27C398.18 188.27 395.48 196.72 393.55 197.64C391.62 198.56 386.84 198.56 386.84 198.56C386.84 198.56 386.53 189.16 389.13 182.83Z" fill="#58A4BD"/>
</svg>
