<svg width="45" height="45" viewBox="0 0 45 45" fill="none" xmlns="http://www.w3.org/2000/svg">
<path fill-rule="evenodd" clip-rule="evenodd" d="M45 22.5C45 34.9256 34.9256 45 22.5 45C10.0744 45 0 34.9256 0 22.5C0 10.0744 10.0744 0 22.5 0C34.9256 0 45 10.0744 45 22.5ZM23.3063 16.6106C21.1181 17.52 16.7437 19.4044 10.185 22.2619C9.12 22.6856 8.56125 23.1 8.51062 23.505C8.42438 24.1912 9.28312 24.4613 10.4494 24.8269C10.6088 24.8775 10.7738 24.9281 10.9425 24.9844C12.0919 25.3575 13.6369 25.7944 14.4394 25.8112C15.1688 25.8263 15.9825 25.5263 16.8806 24.9113C23.0081 20.7731 26.1712 18.6825 26.37 18.6375C26.5106 18.6056 26.7056 18.5644 26.8369 18.6825C26.9681 18.7987 26.955 19.02 26.9419 19.08C26.8556 19.4419 23.4919 22.5713 21.7481 24.1912C21.2044 24.6956 20.82 25.0538 20.7413 25.1362C20.565 25.3181 20.385 25.4925 20.2125 25.6594C19.1437 26.6869 18.345 27.4594 20.2575 28.7194C21.1763 29.325 21.9112 29.8256 22.6444 30.3244C23.445 30.87 24.2438 31.4137 25.2788 32.0925C25.5413 32.265 25.7925 32.4431 26.0381 32.6175C26.97 33.2831 27.8081 33.8794 28.8431 33.7856C29.4431 33.7294 30.0656 33.165 30.3806 31.4794C31.125 27.4931 32.5913 18.8606 32.9306 15.3019C32.9513 15.0064 32.9387 14.7095 32.8931 14.4169C32.8658 14.1805 32.7507 13.963 32.5706 13.8075C32.3025 13.5881 31.8862 13.5413 31.6987 13.545C30.8531 13.56 29.5556 14.0119 23.3063 16.6106Z" fill="#EAD2B7"/>
</svg>
