<svg width="45" height="30" viewBox="0 0 45 30" fill="none" xmlns="http://www.w3.org/2000/svg">
<path d="M44.0363 4.707C43.7817 3.79862 43.2857 2.97622 42.601 2.32723C41.8969 1.65828 41.0341 1.17976 40.0938 0.936841C36.5747 0.00929194 22.476 0.00929215 22.476 0.00929215C16.5984 -0.0575801 10.7222 0.236541 4.88063 0.889995C3.94032 1.15086 3.07905 1.64007 2.37343 2.31411C1.68011 2.9812 1.17793 3.80381 0.915589 4.70513C0.285404 8.10004 -0.0207823 11.5472 0.0011565 15C-0.0213295 18.4497 0.284106 21.8957 0.915589 25.2948C1.1723 26.1924 1.67262 27.0113 2.36781 27.6728C3.06301 28.3342 3.92872 28.812 4.88063 29.065C8.44654 29.9907 22.476 29.9907 22.476 29.9907C28.361 30.0576 34.2447 29.7635 40.0938 29.11C41.0341 28.8671 41.8969 28.3885 42.601 27.7196C43.2854 27.0707 43.7809 26.2482 44.0345 25.3398C44.6811 21.9462 44.9955 18.4977 44.9732 15.0431C45.0219 11.5739 44.7079 8.10907 44.0363 4.70513V4.707ZM17.9937 21.416V8.58584L29.724 15.0019L17.9937 21.416Z" fill="#EAD2B7"/>
</svg>
